M48
;GenerationSoftware,Autodesk,EAGLE,9.7.0*%
;CreationDate,2023-09-11T09:13:15Z*%
FMAT,2
ICI,OFF
METRIC,TZ,000.000
T2C0.350
T1C1.016
%
G90
M71
T1
X2569Y7358
X6320Y37100
X16850Y1778
X5109Y2278
X2569Y2278
X5109Y4818
X2569Y4818
X5109Y7358
X5109Y9898
X2569Y9898
X5109Y12438
X2569Y12438
X14420Y29100
X20910Y29220
X3770Y33400
X6310Y33400
X8850Y33400
X11390Y33400
X13930Y33400
X16470Y33400
X19010Y33400
X21550Y33400
X24090Y33400
X26630Y33400
X29170Y33400
X31710Y33400
X34250Y33400
X3780Y37100
X8860Y37100
X11400Y37100
X13940Y37100
X16480Y37100
X19020Y37100
X21560Y37100
X24100Y37100
X26640Y37100
X29180Y37100
X31720Y37100
X34260Y37100
T2
X8567Y25567
X7830Y31830
X25830Y11976
X20000Y3976
X23500Y16000
X27646Y10500
X26000Y25929
X27126Y27779
X17000Y30439
X29203Y27500
X28500Y23500
X17929Y2571
X11215Y30715
X17947Y5575
X7473Y26086
X6500Y27839
X15248Y30405
X11821Y27147
X30000Y10500
X10000Y14000
X10000Y16000
X1953Y18064
X33000Y20500
X33500Y18000
X3000Y14500
X31500Y27500
X35106Y31000
X33500Y9000
X12555Y12055
X7500Y10500
X25658Y16715
X24000Y9500
X2538Y25798
X2500Y28409
X21111Y4842
X18500Y4842
X2779Y27500
X12715Y31285
X9000Y30500
X12000Y23500
X34000Y27000
X18500Y30342
X25000Y13500
X24000Y10500
X23936Y15000
X20138Y5500
X25000Y12500
X3500Y15500
X8000Y22000
M30