M48
;GenerationSoftware,Autodesk,EAGLE,9.7.0*%
;CreationDate,2023-09-11T09:19:19Z*%
FMAT,2
ICI,OFF
METRIC,TZ,000.000
T1C1.016
%
G90
M71
T1
X12700Y74930
X15240Y74930
X17780Y74930
X20320Y74930
X22860Y74930
X25400Y74930
X27940Y74930
X30480Y74930
X33020Y74930
X35560Y74930
X38100Y74930
X40640Y74930
X43180Y74930
X12700Y79740
X15240Y79740
X17780Y79740
X20320Y79740
X22860Y79740
X25400Y79740
X27940Y79740
X30480Y79740
X33020Y79740
X35560Y79740
X38100Y79740
X40640Y79740
X43180Y79740
X24130Y71120
X29210Y69850
X21590Y25400
X21590Y35560
X31480Y31750
X26670Y31750
X27940Y15240
X25400Y17780
X59960Y54610
X52070Y54610
X11430Y44450
X15240Y48260
X31750Y54610
X31750Y49530
M30