G04 EAGLE Gerber RS-274X export*
G75*
%MOMM*%
%FSLAX34Y34*%
%LPD*%
%INBottom Copper*%
%IPPOS*%
%AMOC8*
5,1,8,0,0,1.08239X$1,22.5*%
G01*
G04 Define Apertures*
%ADD10R,6.451600X3.251200*%
%ADD11P,1.64956X8X22.5*%
%ADD12P,1.64956X8X112.5*%
%ADD13C,1.524000*%
%ADD14C,0.756400*%
%ADD15C,0.254000*%
G36*
X161646Y10220D02*
X161349Y10160D01*
X10922Y10160D01*
X10647Y10211D01*
X10392Y10375D01*
X10220Y10625D01*
X10160Y10922D01*
X10160Y211858D01*
X10211Y212133D01*
X10375Y212388D01*
X10625Y212560D01*
X10922Y212620D01*
X41656Y212620D01*
X41656Y250212D01*
X10922Y250212D01*
X10647Y250263D01*
X10392Y250427D01*
X10220Y250677D01*
X10160Y250974D01*
X10160Y389078D01*
X10211Y389353D01*
X10375Y389608D01*
X10625Y389780D01*
X10922Y389840D01*
X288507Y389840D01*
X288765Y389795D01*
X289024Y389638D01*
X289202Y389392D01*
X289269Y389096D01*
X289216Y388798D01*
X289050Y388544D01*
X288799Y388374D01*
X286045Y387233D01*
X283187Y384375D01*
X281640Y380641D01*
X281640Y371762D01*
X301960Y371762D01*
X301960Y380641D01*
X300413Y384375D01*
X297555Y387233D01*
X294801Y388374D01*
X294580Y388514D01*
X294401Y388759D01*
X294331Y389054D01*
X294382Y389353D01*
X294545Y389608D01*
X294796Y389780D01*
X295093Y389840D01*
X313907Y389840D01*
X314165Y389795D01*
X314424Y389638D01*
X314602Y389392D01*
X314669Y389096D01*
X314616Y388798D01*
X314450Y388544D01*
X314199Y388374D01*
X311445Y387233D01*
X308587Y384375D01*
X307040Y380641D01*
X307040Y371762D01*
X327360Y371762D01*
X327360Y380641D01*
X325813Y384375D01*
X322955Y387233D01*
X320201Y388374D01*
X319980Y388514D01*
X319801Y388759D01*
X319731Y389054D01*
X319782Y389353D01*
X319945Y389608D01*
X320196Y389780D01*
X320493Y389840D01*
X339307Y389840D01*
X339565Y389795D01*
X339824Y389638D01*
X340002Y389392D01*
X340069Y389096D01*
X340016Y388798D01*
X339850Y388544D01*
X339599Y388374D01*
X336845Y387233D01*
X333987Y384375D01*
X332440Y380641D01*
X332440Y371762D01*
X352760Y371762D01*
X352760Y380641D01*
X351213Y384375D01*
X348355Y387233D01*
X345601Y388374D01*
X345380Y388514D01*
X345201Y388759D01*
X345131Y389054D01*
X345182Y389353D01*
X345345Y389608D01*
X345596Y389780D01*
X345893Y389840D01*
X359078Y389840D01*
X359353Y389789D01*
X359608Y389625D01*
X359780Y389375D01*
X359840Y389078D01*
X359840Y10922D01*
X359789Y10647D01*
X359625Y10392D01*
X359375Y10220D01*
X359078Y10160D01*
X175651Y10160D01*
X175388Y10207D01*
X175130Y10366D01*
X174954Y10614D01*
X174889Y10910D01*
X174945Y11208D01*
X175112Y11461D01*
X177644Y13992D01*
X177644Y19643D01*
X177695Y19917D01*
X177859Y20173D01*
X178109Y20344D01*
X178406Y20405D01*
X181487Y20405D01*
X184595Y23513D01*
X184595Y26444D01*
X184647Y26719D01*
X184810Y26974D01*
X185060Y27146D01*
X185357Y27206D01*
X231157Y27206D01*
X287794Y83843D01*
X287794Y217258D01*
X287841Y217522D01*
X288000Y217780D01*
X288248Y217955D01*
X288544Y218020D01*
X288842Y217965D01*
X289095Y217797D01*
X289272Y217620D01*
X321820Y217620D01*
X321820Y255212D01*
X289272Y255212D01*
X287784Y253724D01*
X287784Y241068D01*
X287733Y240793D01*
X287569Y240538D01*
X287319Y240366D01*
X287022Y240306D01*
X282802Y240306D01*
X279694Y237198D01*
X279694Y232802D01*
X281983Y230513D01*
X282146Y230272D01*
X282206Y229975D01*
X282206Y86473D01*
X282150Y86187D01*
X281983Y85934D01*
X229066Y33017D01*
X228824Y32854D01*
X228527Y32794D01*
X208585Y32794D01*
X208322Y32841D01*
X208064Y33000D01*
X207888Y33248D01*
X207823Y33544D01*
X207879Y33842D01*
X208046Y34095D01*
X212782Y38831D01*
X213024Y38994D01*
X213321Y39054D01*
X214987Y39054D01*
X220476Y44543D01*
X220476Y45333D01*
X220532Y45619D01*
X220699Y45872D01*
X261094Y86267D01*
X261094Y114732D01*
X261150Y115018D01*
X261317Y115270D01*
X263606Y117559D01*
X263606Y121955D01*
X260498Y125063D01*
X256068Y125063D01*
X255793Y125114D01*
X255538Y125278D01*
X255366Y125528D01*
X255306Y125825D01*
X255306Y127198D01*
X253043Y129461D01*
X252885Y129692D01*
X252820Y129988D01*
X252875Y130286D01*
X253043Y130539D01*
X255306Y132802D01*
X255306Y137198D01*
X253017Y139487D01*
X252854Y139728D01*
X252794Y140025D01*
X252794Y228527D01*
X252850Y228813D01*
X253017Y229066D01*
X280934Y256983D01*
X281176Y257146D01*
X281473Y257206D01*
X331157Y257206D01*
X338422Y264471D01*
X338664Y264634D01*
X338961Y264694D01*
X342198Y264694D01*
X345306Y267802D01*
X345306Y272198D01*
X342198Y275306D01*
X337802Y275306D01*
X334694Y272198D01*
X334694Y268961D01*
X334638Y268675D01*
X334471Y268422D01*
X329066Y263017D01*
X328824Y262854D01*
X328527Y262794D01*
X298556Y262794D01*
X298281Y262845D01*
X298026Y263009D01*
X297854Y263259D01*
X297794Y263556D01*
X297794Y267199D01*
X297850Y267485D01*
X298017Y267738D01*
X301398Y271119D01*
X301398Y287553D01*
X282733Y306218D01*
X190025Y306218D01*
X189739Y306274D01*
X189487Y306441D01*
X187198Y308730D01*
X182802Y308730D01*
X179694Y305622D01*
X179694Y301226D01*
X182802Y298118D01*
X187198Y298118D01*
X189487Y300407D01*
X189728Y300570D01*
X190025Y300630D01*
X202759Y300630D01*
X203022Y300583D01*
X203280Y300424D01*
X203456Y300176D01*
X203521Y299880D01*
X203465Y299582D01*
X203298Y299329D01*
X199956Y295988D01*
X199956Y288412D01*
X205312Y283056D01*
X212888Y283056D01*
X218244Y288412D01*
X218244Y295988D01*
X214902Y299329D01*
X214749Y299549D01*
X214680Y299844D01*
X214730Y300143D01*
X214894Y300398D01*
X215144Y300570D01*
X215441Y300630D01*
X280103Y300630D01*
X280389Y300574D01*
X280642Y300407D01*
X295587Y285462D01*
X295750Y285220D01*
X295810Y284923D01*
X295810Y280561D01*
X295763Y280298D01*
X295604Y280040D01*
X295356Y279865D01*
X295060Y279800D01*
X294762Y279855D01*
X294509Y280023D01*
X294226Y280306D01*
X289830Y280306D01*
X287541Y278017D01*
X287300Y277854D01*
X287003Y277794D01*
X277324Y277794D01*
X277049Y277845D01*
X276794Y278009D01*
X276622Y278259D01*
X276562Y278556D01*
X276562Y279992D01*
X273454Y283100D01*
X269058Y283100D01*
X265950Y279992D01*
X265950Y275596D01*
X269058Y272488D01*
X272295Y272488D01*
X272581Y272432D01*
X272834Y272265D01*
X272893Y272206D01*
X287003Y272206D01*
X287289Y272150D01*
X287541Y271983D01*
X289830Y269694D01*
X291444Y269694D01*
X291719Y269643D01*
X291974Y269479D01*
X292146Y269229D01*
X292206Y268932D01*
X292206Y263556D01*
X292155Y263281D01*
X291991Y263026D01*
X291741Y262854D01*
X291444Y262794D01*
X278843Y262794D01*
X247206Y231157D01*
X247206Y140025D01*
X247150Y139739D01*
X246983Y139487D01*
X244694Y137198D01*
X244694Y133961D01*
X244638Y133675D01*
X244471Y133422D01*
X237206Y126157D01*
X237206Y110025D01*
X237150Y109739D01*
X236983Y109487D01*
X234694Y107198D01*
X234694Y102802D01*
X237802Y99694D01*
X242198Y99694D01*
X245306Y102802D01*
X245306Y107198D01*
X243017Y109487D01*
X242854Y109728D01*
X242794Y110025D01*
X242794Y123527D01*
X242850Y123813D01*
X243017Y124066D01*
X243393Y124442D01*
X243613Y124595D01*
X243908Y124665D01*
X244207Y124614D01*
X244462Y124450D01*
X244634Y124200D01*
X244694Y123903D01*
X244694Y122802D01*
X246983Y120513D01*
X247146Y120272D01*
X247206Y119975D01*
X247206Y95317D01*
X247150Y95031D01*
X246983Y94778D01*
X210222Y58017D01*
X209980Y57854D01*
X209683Y57794D01*
X206401Y57794D01*
X206115Y57850D01*
X205863Y58017D01*
X203574Y60306D01*
X199178Y60306D01*
X196070Y57198D01*
X196070Y52802D01*
X196353Y52519D01*
X196506Y52299D01*
X196576Y52004D01*
X196525Y51705D01*
X196362Y51450D01*
X196112Y51278D01*
X195815Y51218D01*
X190025Y51218D01*
X189739Y51274D01*
X189487Y51441D01*
X187198Y53730D01*
X185542Y53730D01*
X185267Y53781D01*
X185012Y53945D01*
X184840Y54195D01*
X184780Y54492D01*
X184780Y57948D01*
X181672Y61056D01*
X177276Y61056D01*
X176429Y60209D01*
X176198Y60051D01*
X175902Y59986D01*
X175604Y60041D01*
X175351Y60209D01*
X159626Y75934D01*
X159463Y76176D01*
X159403Y76473D01*
X159403Y176596D01*
X86932Y249067D01*
X86779Y249286D01*
X86709Y249581D01*
X86760Y249880D01*
X86923Y250135D01*
X87173Y250307D01*
X87470Y250367D01*
X87871Y250367D01*
X90979Y253476D01*
X90979Y257871D01*
X87871Y260979D01*
X84867Y260979D01*
X84592Y261031D01*
X84336Y261194D01*
X84165Y261444D01*
X84105Y261741D01*
X84105Y264746D01*
X78616Y270235D01*
X59032Y270235D01*
X58746Y270290D01*
X58494Y270458D01*
X53017Y275934D01*
X52854Y276176D01*
X52794Y276473D01*
X52794Y293527D01*
X52850Y293813D01*
X53017Y294066D01*
X73483Y314532D01*
X73713Y314690D01*
X74009Y314755D01*
X74308Y314699D01*
X74560Y314532D01*
X76100Y312992D01*
X80496Y312992D01*
X83604Y316100D01*
X83604Y317366D01*
X83653Y317635D01*
X83814Y317892D01*
X84063Y318065D01*
X84360Y318128D01*
X84657Y318070D01*
X86681Y317232D01*
X90319Y317232D01*
X93680Y318624D01*
X96252Y321196D01*
X97644Y324557D01*
X97644Y343435D01*
X96252Y346796D01*
X93680Y349368D01*
X90319Y350760D01*
X86681Y350760D01*
X83320Y349368D01*
X80748Y346796D01*
X79356Y343435D01*
X79356Y324465D01*
X79372Y324390D01*
X79321Y324091D01*
X79158Y323836D01*
X78908Y323664D01*
X78610Y323604D01*
X76100Y323604D01*
X73811Y321315D01*
X73570Y321152D01*
X73272Y321092D01*
X71949Y321092D01*
X71680Y321141D01*
X71423Y321302D01*
X71250Y321551D01*
X71187Y321848D01*
X71245Y322145D01*
X72244Y324557D01*
X72244Y343435D01*
X70852Y346796D01*
X68280Y349368D01*
X64919Y350760D01*
X61281Y350760D01*
X57920Y349368D01*
X55348Y346796D01*
X53956Y343435D01*
X53956Y324557D01*
X55348Y321196D01*
X57920Y318624D01*
X61281Y317232D01*
X64919Y317232D01*
X67119Y318143D01*
X67374Y318200D01*
X67674Y318154D01*
X67932Y317995D01*
X68107Y317748D01*
X68172Y317451D01*
X68117Y317153D01*
X67949Y316900D01*
X47206Y296157D01*
X47206Y273843D01*
X56402Y264647D01*
X69173Y264647D01*
X69437Y264600D01*
X69695Y264440D01*
X69870Y264193D01*
X69935Y263897D01*
X69880Y263599D01*
X69712Y263346D01*
X69429Y263062D01*
X69429Y259022D01*
X69377Y258747D01*
X69214Y258492D01*
X68964Y258320D01*
X68667Y258260D01*
X40500Y258260D01*
X40214Y258316D01*
X39962Y258483D01*
X30811Y267634D01*
X30648Y267875D01*
X30588Y268172D01*
X30588Y269975D01*
X30644Y270261D01*
X30811Y270513D01*
X33100Y272802D01*
X33100Y277198D01*
X29992Y280306D01*
X25596Y280306D01*
X22488Y277198D01*
X22488Y272802D01*
X24777Y270513D01*
X24940Y270272D01*
X25000Y269975D01*
X25000Y265542D01*
X37870Y252672D01*
X69360Y252672D01*
X69646Y252616D01*
X69899Y252449D01*
X70835Y251513D01*
X70988Y251293D01*
X71058Y250998D01*
X71007Y250699D01*
X70844Y250444D01*
X70594Y250272D01*
X70296Y250212D01*
X43180Y250212D01*
X43180Y232178D01*
X77216Y232178D01*
X77216Y243292D01*
X77263Y243556D01*
X77422Y243814D01*
X77670Y243989D01*
X77966Y244054D01*
X78264Y243999D01*
X78517Y243831D01*
X147919Y174429D01*
X148082Y174188D01*
X148142Y173890D01*
X148142Y50526D01*
X153038Y45630D01*
X179975Y45630D01*
X180261Y45574D01*
X180513Y45407D01*
X182802Y43118D01*
X187198Y43118D01*
X189487Y45407D01*
X189728Y45570D01*
X190025Y45630D01*
X196530Y45630D01*
X196793Y45583D01*
X197051Y45424D01*
X197226Y45176D01*
X197291Y44880D01*
X197236Y44582D01*
X197068Y44329D01*
X194694Y41955D01*
X194694Y38556D01*
X194643Y38281D01*
X194479Y38026D01*
X194229Y37854D01*
X193932Y37794D01*
X178121Y37794D01*
X175217Y34889D01*
X174975Y34726D01*
X174678Y34666D01*
X143106Y34666D01*
X142820Y34722D01*
X142567Y34889D01*
X139889Y37567D01*
X139726Y37809D01*
X139666Y38106D01*
X139666Y54285D01*
X73017Y120934D01*
X72854Y121176D01*
X72794Y121473D01*
X72794Y198527D01*
X72850Y198813D01*
X73017Y199066D01*
X82794Y208843D01*
X82794Y214975D01*
X82850Y215261D01*
X83017Y215513D01*
X85306Y217802D01*
X85306Y222198D01*
X82198Y225306D01*
X77978Y225306D01*
X77703Y225357D01*
X77448Y225521D01*
X77276Y225771D01*
X77216Y226068D01*
X77216Y230654D01*
X43180Y230654D01*
X43180Y212620D01*
X75728Y212620D01*
X75905Y212797D01*
X76125Y212950D01*
X76420Y213020D01*
X76719Y212969D01*
X76974Y212806D01*
X77146Y212556D01*
X77206Y212258D01*
X77206Y211473D01*
X77150Y211187D01*
X76983Y210934D01*
X67206Y201157D01*
X67206Y128585D01*
X67159Y128322D01*
X67000Y128064D01*
X66752Y127888D01*
X66456Y127823D01*
X66158Y127879D01*
X65905Y128046D01*
X64525Y129426D01*
X64362Y129668D01*
X64331Y129822D01*
X56537Y137616D01*
X56393Y137644D01*
X56140Y137811D01*
X40529Y153422D01*
X40366Y153664D01*
X40306Y153961D01*
X40306Y157198D01*
X37198Y160306D01*
X32802Y160306D01*
X29694Y157198D01*
X29694Y152802D01*
X32802Y149694D01*
X36039Y149694D01*
X36325Y149638D01*
X36578Y149471D01*
X51224Y134825D01*
X51377Y134605D01*
X51447Y134310D01*
X51396Y134011D01*
X51232Y133756D01*
X50982Y133584D01*
X50685Y133524D01*
X47306Y133524D01*
X41950Y128168D01*
X41950Y120592D01*
X47306Y115236D01*
X54882Y115236D01*
X60238Y120592D01*
X60238Y123971D01*
X60285Y124234D01*
X60444Y124492D01*
X60692Y124668D01*
X60988Y124733D01*
X61286Y124677D01*
X61539Y124510D01*
X133855Y52194D01*
X134018Y51952D01*
X134078Y51655D01*
X134078Y35476D01*
X140476Y29078D01*
X173313Y29078D01*
X173577Y29031D01*
X173835Y28872D01*
X174010Y28624D01*
X174075Y28328D01*
X174020Y28030D01*
X173983Y27975D01*
X173983Y27068D01*
X173936Y26805D01*
X173777Y26546D01*
X173530Y26371D01*
X173234Y26306D01*
X172935Y26362D01*
X172683Y26529D01*
X172288Y26924D01*
X164712Y26924D01*
X159356Y21568D01*
X159356Y13992D01*
X161888Y11461D01*
X162041Y11241D01*
X162110Y10946D01*
X162060Y10647D01*
X161896Y10392D01*
X161646Y10220D01*
G37*
%LPC*%
G36*
X35981Y354236D02*
X39619Y354236D01*
X42980Y355628D01*
X45552Y358200D01*
X46944Y361561D01*
X46944Y380439D01*
X45552Y383800D01*
X42980Y386372D01*
X39619Y387764D01*
X35981Y387764D01*
X32620Y386372D01*
X30048Y383800D01*
X28656Y380439D01*
X28656Y361561D01*
X30048Y358200D01*
X32620Y355628D01*
X35981Y354236D01*
G37*
G36*
X61381Y354236D02*
X65019Y354236D01*
X68380Y355628D01*
X70952Y358200D01*
X72344Y361561D01*
X72344Y380439D01*
X70952Y383800D01*
X68380Y386372D01*
X65019Y387764D01*
X61381Y387764D01*
X58020Y386372D01*
X55448Y383800D01*
X54056Y380439D01*
X54056Y361561D01*
X55448Y358200D01*
X58020Y355628D01*
X61381Y354236D01*
G37*
G36*
X137581Y354236D02*
X141219Y354236D01*
X144580Y355628D01*
X147152Y358200D01*
X148544Y361561D01*
X148544Y380439D01*
X147152Y383800D01*
X144580Y386372D01*
X141219Y387764D01*
X137581Y387764D01*
X134220Y386372D01*
X131648Y383800D01*
X130256Y380439D01*
X130256Y361561D01*
X131648Y358200D01*
X134220Y355628D01*
X137581Y354236D01*
G37*
G36*
X162981Y354236D02*
X166619Y354236D01*
X169980Y355628D01*
X172552Y358200D01*
X173944Y361561D01*
X173944Y380439D01*
X172552Y383800D01*
X169980Y386372D01*
X166619Y387764D01*
X162981Y387764D01*
X159620Y386372D01*
X157048Y383800D01*
X155656Y380439D01*
X155656Y361561D01*
X157048Y358200D01*
X159620Y355628D01*
X162981Y354236D01*
G37*
G36*
X86781Y354236D02*
X90419Y354236D01*
X93780Y355628D01*
X96352Y358200D01*
X97744Y361561D01*
X97744Y380439D01*
X96352Y383800D01*
X93780Y386372D01*
X90419Y387764D01*
X86781Y387764D01*
X83420Y386372D01*
X80848Y383800D01*
X79456Y380439D01*
X79456Y361561D01*
X80848Y358200D01*
X83420Y355628D01*
X86781Y354236D01*
G37*
G36*
X264581Y354236D02*
X268219Y354236D01*
X271580Y355628D01*
X274152Y358200D01*
X275544Y361561D01*
X275544Y380439D01*
X274152Y383800D01*
X271580Y386372D01*
X268219Y387764D01*
X264581Y387764D01*
X261220Y386372D01*
X258648Y383800D01*
X257256Y380439D01*
X257256Y361561D01*
X258648Y358200D01*
X261220Y355628D01*
X264581Y354236D01*
G37*
G36*
X112181Y354236D02*
X115819Y354236D01*
X119180Y355628D01*
X121752Y358200D01*
X123144Y361561D01*
X123144Y380439D01*
X121752Y383800D01*
X119180Y386372D01*
X115819Y387764D01*
X112181Y387764D01*
X108820Y386372D01*
X106248Y383800D01*
X104856Y380439D01*
X104856Y361561D01*
X106248Y358200D01*
X108820Y355628D01*
X112181Y354236D01*
G37*
G36*
X237162Y144694D02*
X241558Y144694D01*
X244666Y147802D01*
X244666Y152198D01*
X241558Y155306D01*
X239649Y155306D01*
X239386Y155353D01*
X239128Y155512D01*
X238953Y155760D01*
X238888Y156056D01*
X238943Y156354D01*
X239111Y156607D01*
X240306Y157802D01*
X240306Y162198D01*
X237198Y165306D01*
X233961Y165306D01*
X233675Y165362D01*
X233422Y165529D01*
X157631Y241320D01*
X157468Y241562D01*
X157408Y241859D01*
X157408Y296471D01*
X155496Y298383D01*
X155333Y298625D01*
X155273Y298922D01*
X155273Y299029D01*
X155328Y299315D01*
X155496Y299568D01*
X157785Y301857D01*
X157785Y306253D01*
X154677Y309361D01*
X150281Y309361D01*
X147173Y306253D01*
X147173Y301857D01*
X147585Y301445D01*
X147738Y301225D01*
X147808Y300930D01*
X147757Y300631D01*
X147593Y300376D01*
X147343Y300204D01*
X147046Y300144D01*
X140412Y300144D01*
X135056Y294788D01*
X135056Y287212D01*
X140412Y281856D01*
X147988Y281856D01*
X150519Y284388D01*
X150739Y284541D01*
X151034Y284610D01*
X151333Y284560D01*
X151588Y284396D01*
X151760Y284146D01*
X151820Y283849D01*
X151820Y239229D01*
X229471Y161578D01*
X229634Y161336D01*
X229694Y161039D01*
X229694Y157802D01*
X232802Y154694D01*
X234711Y154694D01*
X234974Y154647D01*
X235232Y154488D01*
X235407Y154240D01*
X235472Y153944D01*
X235417Y153646D01*
X235249Y153393D01*
X234873Y153017D01*
X234632Y152854D01*
X234335Y152794D01*
X231473Y152794D01*
X231187Y152850D01*
X230934Y153017D01*
X132081Y251870D01*
X131918Y252112D01*
X131858Y252409D01*
X131858Y277035D01*
X130167Y278726D01*
X130004Y278967D01*
X129944Y279264D01*
X129944Y307825D01*
X130000Y308111D01*
X130167Y308363D01*
X132456Y310652D01*
X132456Y312701D01*
X132503Y312965D01*
X132662Y313223D01*
X132910Y313398D01*
X133206Y313463D01*
X133504Y313408D01*
X133757Y313240D01*
X133829Y313168D01*
X197119Y313168D01*
X206180Y322229D01*
X206405Y322384D01*
X206701Y322452D01*
X206999Y322398D01*
X207253Y322233D01*
X207423Y321982D01*
X207748Y321196D01*
X210320Y318624D01*
X213681Y317232D01*
X217319Y317232D01*
X220680Y318624D01*
X223252Y321196D01*
X224644Y324557D01*
X224644Y343435D01*
X223252Y346796D01*
X220680Y349368D01*
X217319Y350760D01*
X213681Y350760D01*
X210320Y349368D01*
X209181Y348228D01*
X208961Y348075D01*
X208666Y348006D01*
X208367Y348056D01*
X208112Y348220D01*
X207940Y348470D01*
X207880Y348767D01*
X207880Y349457D01*
X207936Y349743D01*
X208103Y349996D01*
X212405Y354297D01*
X212641Y354457D01*
X212937Y354520D01*
X213235Y354462D01*
X213781Y354236D01*
X217419Y354236D01*
X220780Y355628D01*
X223352Y358200D01*
X224744Y361561D01*
X224744Y380439D01*
X223352Y383800D01*
X220780Y386372D01*
X217419Y387764D01*
X213781Y387764D01*
X210420Y386372D01*
X207848Y383800D01*
X206456Y380439D01*
X206456Y361561D01*
X207816Y358277D01*
X207874Y357997D01*
X207819Y357699D01*
X207651Y357446D01*
X202292Y352087D01*
X202292Y326559D01*
X202236Y326273D01*
X202069Y326020D01*
X200545Y324496D01*
X200325Y324343D01*
X200030Y324273D01*
X199731Y324324D01*
X199476Y324488D01*
X199304Y324738D01*
X199244Y325035D01*
X199244Y343435D01*
X197852Y346796D01*
X195280Y349368D01*
X191919Y350760D01*
X188281Y350760D01*
X184920Y349368D01*
X182348Y346796D01*
X180956Y343435D01*
X180956Y324557D01*
X182348Y321196D01*
X183488Y320057D01*
X183641Y319837D01*
X183710Y319542D01*
X183660Y319243D01*
X183496Y318988D01*
X183246Y318816D01*
X182949Y318756D01*
X171851Y318756D01*
X171588Y318803D01*
X171330Y318962D01*
X171154Y319210D01*
X171089Y319506D01*
X171145Y319804D01*
X171312Y320057D01*
X172452Y321196D01*
X173844Y324557D01*
X173844Y343435D01*
X172452Y346796D01*
X169880Y349368D01*
X166519Y350760D01*
X162881Y350760D01*
X159520Y349368D01*
X156948Y346796D01*
X155556Y343435D01*
X155556Y324557D01*
X156948Y321196D01*
X158088Y320057D01*
X158241Y319837D01*
X158310Y319542D01*
X158260Y319243D01*
X158096Y318988D01*
X157846Y318816D01*
X157549Y318756D01*
X146451Y318756D01*
X146188Y318803D01*
X145930Y318962D01*
X145754Y319210D01*
X145689Y319506D01*
X145745Y319804D01*
X145912Y320057D01*
X147052Y321196D01*
X148444Y324557D01*
X148444Y343435D01*
X147052Y346796D01*
X144480Y349368D01*
X141119Y350760D01*
X137481Y350760D01*
X134120Y349368D01*
X131548Y346796D01*
X130156Y343435D01*
X130156Y324557D01*
X130688Y323274D01*
X130745Y323006D01*
X130694Y322707D01*
X130531Y322452D01*
X130281Y322280D01*
X129984Y322220D01*
X123216Y322220D01*
X122947Y322269D01*
X122691Y322430D01*
X122517Y322679D01*
X122454Y322976D01*
X122512Y323274D01*
X123044Y324557D01*
X123044Y343435D01*
X121652Y346796D01*
X119080Y349368D01*
X115719Y350760D01*
X112081Y350760D01*
X108720Y349368D01*
X106148Y346796D01*
X104756Y343435D01*
X104756Y324557D01*
X106148Y321196D01*
X108720Y318624D01*
X112081Y317232D01*
X115719Y317232D01*
X116553Y317578D01*
X116808Y317635D01*
X117108Y317589D01*
X117366Y317429D01*
X117541Y317182D01*
X117606Y316886D01*
X117551Y316588D01*
X117383Y316335D01*
X113728Y312679D01*
X113486Y312516D01*
X113189Y312456D01*
X109952Y312456D01*
X106844Y309348D01*
X106844Y308556D01*
X106793Y308281D01*
X106629Y308026D01*
X106379Y307854D01*
X106082Y307794D01*
X95025Y307794D01*
X94739Y307850D01*
X94487Y308017D01*
X92198Y310306D01*
X87802Y310306D01*
X84694Y307198D01*
X84694Y302802D01*
X87802Y299694D01*
X92198Y299694D01*
X94487Y301983D01*
X94728Y302146D01*
X95025Y302206D01*
X103527Y302206D01*
X103813Y302150D01*
X104066Y301983D01*
X116983Y289066D01*
X117146Y288824D01*
X117206Y288527D01*
X117206Y278265D01*
X117159Y278002D01*
X117000Y277744D01*
X116752Y277568D01*
X116456Y277503D01*
X116158Y277559D01*
X115905Y277726D01*
X115838Y277794D01*
X71068Y277794D01*
X70793Y277845D01*
X70538Y278009D01*
X70366Y278259D01*
X70306Y278556D01*
X70306Y280592D01*
X67198Y283700D01*
X62802Y283700D01*
X59694Y280592D01*
X59694Y276196D01*
X62802Y273088D01*
X66039Y273088D01*
X66325Y273032D01*
X66578Y272865D01*
X67237Y272206D01*
X112142Y272206D01*
X112417Y272155D01*
X112672Y271991D01*
X112844Y271741D01*
X112904Y271444D01*
X112904Y269272D01*
X116012Y266164D01*
X116627Y266164D01*
X116890Y266117D01*
X117148Y265958D01*
X117324Y265711D01*
X117389Y265414D01*
X117333Y265116D01*
X117206Y264924D01*
X117206Y240025D01*
X117150Y239739D01*
X116983Y239487D01*
X114694Y237198D01*
X114694Y232802D01*
X117802Y229694D01*
X122198Y229694D01*
X125306Y232802D01*
X125306Y237198D01*
X123017Y239487D01*
X122854Y239728D01*
X122794Y240025D01*
X122794Y262273D01*
X122850Y262559D01*
X123017Y262812D01*
X124969Y264764D01*
X125189Y264917D01*
X125484Y264987D01*
X125783Y264936D01*
X126038Y264773D01*
X126210Y264523D01*
X126270Y264225D01*
X126270Y249779D01*
X228843Y147206D01*
X234335Y147206D01*
X234621Y147150D01*
X234873Y146983D01*
X237162Y144694D01*
G37*
G36*
X239181Y354236D02*
X242819Y354236D01*
X246180Y355628D01*
X248752Y358200D01*
X250144Y361561D01*
X250144Y380439D01*
X248752Y383800D01*
X246180Y386372D01*
X242819Y387764D01*
X239181Y387764D01*
X235820Y386372D01*
X233248Y383800D01*
X231856Y380439D01*
X231856Y361561D01*
X233248Y358200D01*
X235820Y355628D01*
X239181Y354236D01*
G37*
G36*
X188381Y354236D02*
X192019Y354236D01*
X195380Y355628D01*
X197952Y358200D01*
X199344Y361561D01*
X199344Y380439D01*
X197952Y383800D01*
X195380Y386372D01*
X192019Y387764D01*
X188381Y387764D01*
X185020Y386372D01*
X182448Y383800D01*
X181056Y380439D01*
X181056Y361561D01*
X182448Y358200D01*
X185020Y355628D01*
X188381Y354236D01*
G37*
G36*
X332340Y334758D02*
X352660Y334758D01*
X352660Y343637D01*
X351113Y347371D01*
X348255Y350229D01*
X344528Y351773D01*
X344302Y351917D01*
X344125Y352163D01*
X344057Y352459D01*
X344111Y352758D01*
X344276Y353012D01*
X344528Y353181D01*
X348355Y354767D01*
X351213Y357625D01*
X352760Y361359D01*
X352760Y370238D01*
X332440Y370238D01*
X332440Y361359D01*
X333987Y357625D01*
X336845Y354767D01*
X340573Y353223D01*
X340798Y353079D01*
X340975Y352833D01*
X341043Y352537D01*
X340989Y352238D01*
X340824Y351984D01*
X340573Y351815D01*
X336745Y350229D01*
X333887Y347371D01*
X332340Y343637D01*
X332340Y334758D01*
G37*
G36*
X281540Y334758D02*
X301860Y334758D01*
X301860Y343637D01*
X300313Y347371D01*
X297455Y350229D01*
X293728Y351773D01*
X293502Y351917D01*
X293325Y352163D01*
X293257Y352459D01*
X293311Y352758D01*
X293476Y353012D01*
X293728Y353181D01*
X297555Y354767D01*
X300413Y357625D01*
X301960Y361359D01*
X301960Y370238D01*
X281640Y370238D01*
X281640Y361359D01*
X283187Y357625D01*
X286045Y354767D01*
X289773Y353223D01*
X289998Y353079D01*
X290175Y352833D01*
X290243Y352537D01*
X290189Y352238D01*
X290024Y351984D01*
X289773Y351815D01*
X285945Y350229D01*
X283087Y347371D01*
X281540Y343637D01*
X281540Y334758D01*
G37*
G36*
X306940Y334758D02*
X327260Y334758D01*
X327260Y343637D01*
X325713Y347371D01*
X322855Y350229D01*
X319128Y351773D01*
X318902Y351917D01*
X318725Y352163D01*
X318657Y352459D01*
X318711Y352758D01*
X318876Y353012D01*
X319128Y353181D01*
X322955Y354767D01*
X325813Y357625D01*
X327360Y361359D01*
X327360Y370238D01*
X307040Y370238D01*
X307040Y361359D01*
X308587Y357625D01*
X311445Y354767D01*
X315173Y353223D01*
X315398Y353079D01*
X315575Y352833D01*
X315643Y352537D01*
X315589Y352238D01*
X315424Y351984D01*
X315173Y351815D01*
X311345Y350229D01*
X308487Y347371D01*
X306940Y343637D01*
X306940Y334758D01*
G37*
G36*
X38462Y334758D02*
X47860Y334758D01*
X47860Y343637D01*
X46313Y347371D01*
X43455Y350229D01*
X39721Y351776D01*
X38462Y351776D01*
X38462Y334758D01*
G37*
G36*
X27540Y334758D02*
X36938Y334758D01*
X36938Y351776D01*
X35679Y351776D01*
X31945Y350229D01*
X29087Y347371D01*
X27540Y343637D01*
X27540Y334758D01*
G37*
G36*
X241662Y334758D02*
X251060Y334758D01*
X251060Y343637D01*
X249513Y347371D01*
X246655Y350229D01*
X242921Y351776D01*
X241662Y351776D01*
X241662Y334758D01*
G37*
G36*
X230740Y334758D02*
X240138Y334758D01*
X240138Y351776D01*
X238879Y351776D01*
X235145Y350229D01*
X232287Y347371D01*
X230740Y343637D01*
X230740Y334758D01*
G37*
G36*
X256140Y334758D02*
X265538Y334758D01*
X265538Y351776D01*
X264279Y351776D01*
X260545Y350229D01*
X257687Y347371D01*
X256140Y343637D01*
X256140Y334758D01*
G37*
G36*
X267062Y334758D02*
X276460Y334758D01*
X276460Y343637D01*
X274913Y347371D01*
X272055Y350229D01*
X268321Y351776D01*
X267062Y351776D01*
X267062Y334758D01*
G37*
G36*
X264279Y316216D02*
X265538Y316216D01*
X265538Y333234D01*
X256140Y333234D01*
X256140Y324355D01*
X257687Y320621D01*
X260545Y317763D01*
X264279Y316216D01*
G37*
G36*
X289679Y316216D02*
X290938Y316216D01*
X290938Y333234D01*
X281540Y333234D01*
X281540Y324355D01*
X283087Y320621D01*
X285945Y317763D01*
X289679Y316216D01*
G37*
G36*
X343262Y316216D02*
X344521Y316216D01*
X348255Y317763D01*
X351113Y320621D01*
X352660Y324355D01*
X352660Y333234D01*
X343262Y333234D01*
X343262Y316216D01*
G37*
G36*
X340479Y316216D02*
X341738Y316216D01*
X341738Y333234D01*
X332340Y333234D01*
X332340Y324355D01*
X333887Y320621D01*
X336745Y317763D01*
X340479Y316216D01*
G37*
G36*
X317862Y316216D02*
X319121Y316216D01*
X322855Y317763D01*
X325713Y320621D01*
X327260Y324355D01*
X327260Y333234D01*
X317862Y333234D01*
X317862Y316216D01*
G37*
G36*
X315079Y316216D02*
X316338Y316216D01*
X316338Y333234D01*
X306940Y333234D01*
X306940Y324355D01*
X308487Y320621D01*
X311345Y317763D01*
X315079Y316216D01*
G37*
G36*
X292462Y316216D02*
X293721Y316216D01*
X297455Y317763D01*
X300313Y320621D01*
X301860Y324355D01*
X301860Y333234D01*
X292462Y333234D01*
X292462Y316216D01*
G37*
G36*
X267062Y316216D02*
X268321Y316216D01*
X272055Y317763D01*
X274913Y320621D01*
X276460Y324355D01*
X276460Y333234D01*
X267062Y333234D01*
X267062Y316216D01*
G37*
G36*
X241662Y316216D02*
X242921Y316216D01*
X246655Y317763D01*
X249513Y320621D01*
X251060Y324355D01*
X251060Y333234D01*
X241662Y333234D01*
X241662Y316216D01*
G37*
G36*
X238879Y316216D02*
X240138Y316216D01*
X240138Y333234D01*
X230740Y333234D01*
X230740Y324355D01*
X232287Y320621D01*
X235145Y317763D01*
X238879Y316216D01*
G37*
G36*
X38462Y316216D02*
X39721Y316216D01*
X43455Y317763D01*
X46313Y320621D01*
X47860Y324355D01*
X47860Y333234D01*
X38462Y333234D01*
X38462Y316216D01*
G37*
G36*
X35679Y316216D02*
X36938Y316216D01*
X36938Y333234D01*
X27540Y333234D01*
X27540Y324355D01*
X29087Y320621D01*
X31945Y317763D01*
X35679Y316216D01*
G37*
G36*
X257802Y253988D02*
X262198Y253988D01*
X265306Y257096D01*
X265306Y261492D01*
X262198Y264600D01*
X258961Y264600D01*
X258675Y264656D01*
X258422Y264823D01*
X255451Y267794D01*
X201473Y267794D01*
X201187Y267850D01*
X200934Y268017D01*
X173017Y295934D01*
X172854Y296176D01*
X172794Y296473D01*
X172794Y299361D01*
X172850Y299647D01*
X173017Y299899D01*
X175306Y302188D01*
X175306Y306584D01*
X172198Y309692D01*
X167802Y309692D01*
X164694Y306584D01*
X164694Y302188D01*
X166983Y299899D01*
X167146Y299658D01*
X167206Y299361D01*
X167206Y293843D01*
X198843Y262206D01*
X252821Y262206D01*
X253107Y262150D01*
X253360Y261983D01*
X254471Y260872D01*
X254634Y260630D01*
X254694Y260333D01*
X254694Y257096D01*
X257802Y253988D01*
G37*
G36*
X323344Y237178D02*
X357380Y237178D01*
X357380Y253724D01*
X355892Y255212D01*
X323344Y255212D01*
X323344Y237178D01*
G37*
G36*
X323344Y217620D02*
X355892Y217620D01*
X357380Y219108D01*
X357380Y235654D01*
X323344Y235654D01*
X323344Y217620D01*
G37*
G36*
X21906Y115236D02*
X29482Y115236D01*
X34838Y120592D01*
X34838Y128168D01*
X29482Y133524D01*
X21906Y133524D01*
X16550Y128168D01*
X16550Y120592D01*
X21906Y115236D01*
G37*
G36*
X21906Y89836D02*
X29482Y89836D01*
X34838Y95192D01*
X34838Y102768D01*
X29482Y108124D01*
X21906Y108124D01*
X16550Y102768D01*
X16550Y95192D01*
X21906Y89836D01*
G37*
G36*
X47306Y89836D02*
X54882Y89836D01*
X60238Y95192D01*
X60238Y102768D01*
X54882Y108124D01*
X47306Y108124D01*
X41950Y102768D01*
X41950Y95192D01*
X47306Y89836D01*
G37*
G36*
X40934Y74342D02*
X50332Y74342D01*
X50332Y83740D01*
X46886Y83740D01*
X40934Y77788D01*
X40934Y74342D01*
G37*
G36*
X51856Y74342D02*
X61254Y74342D01*
X61254Y77788D01*
X55302Y83740D01*
X51856Y83740D01*
X51856Y74342D01*
G37*
G36*
X21906Y64436D02*
X29482Y64436D01*
X34838Y69792D01*
X34838Y77368D01*
X29482Y82724D01*
X21906Y82724D01*
X16550Y77368D01*
X16550Y69792D01*
X21906Y64436D01*
G37*
G36*
X51856Y63420D02*
X55302Y63420D01*
X61254Y69372D01*
X61254Y72818D01*
X51856Y72818D01*
X51856Y63420D01*
G37*
G36*
X46886Y63420D02*
X50332Y63420D01*
X50332Y72818D01*
X40934Y72818D01*
X40934Y69372D01*
X46886Y63420D01*
G37*
G36*
X40934Y48942D02*
X50332Y48942D01*
X50332Y58340D01*
X46886Y58340D01*
X40934Y52388D01*
X40934Y48942D01*
G37*
G36*
X51856Y48942D02*
X61254Y48942D01*
X61254Y52388D01*
X55302Y58340D01*
X51856Y58340D01*
X51856Y48942D01*
G37*
G36*
X21906Y39036D02*
X29482Y39036D01*
X34838Y44392D01*
X34838Y51968D01*
X29482Y57324D01*
X21906Y57324D01*
X16550Y51968D01*
X16550Y44392D01*
X21906Y39036D01*
G37*
G36*
X51856Y38020D02*
X55302Y38020D01*
X61254Y43972D01*
X61254Y47418D01*
X51856Y47418D01*
X51856Y38020D01*
G37*
G36*
X46886Y38020D02*
X50332Y38020D01*
X50332Y47418D01*
X40934Y47418D01*
X40934Y43972D01*
X46886Y38020D01*
G37*
G36*
X47306Y13636D02*
X54882Y13636D01*
X60238Y18992D01*
X60238Y26568D01*
X54882Y31924D01*
X47306Y31924D01*
X41950Y26568D01*
X41950Y18992D01*
X47306Y13636D01*
G37*
G36*
X21906Y13636D02*
X29482Y13636D01*
X34838Y18992D01*
X34838Y26568D01*
X29482Y31924D01*
X21906Y31924D01*
X16550Y26568D01*
X16550Y18992D01*
X21906Y13636D01*
G37*
%LPD*%
D10*
X42418Y231416D03*
X322582Y236416D03*
D11*
X168500Y17780D03*
D12*
X51094Y22780D03*
X25694Y22780D03*
X51094Y48180D03*
X25694Y48180D03*
X51094Y73580D03*
X25694Y73580D03*
X51094Y98980D03*
X25694Y98980D03*
X51094Y124380D03*
X25694Y124380D03*
D11*
X144200Y291000D03*
X209100Y292200D03*
D13*
X37700Y326376D02*
X37700Y341616D01*
X63100Y341616D02*
X63100Y326376D01*
X88500Y326376D02*
X88500Y341616D01*
X113900Y341616D02*
X113900Y326376D01*
X139300Y326376D02*
X139300Y341616D01*
X164700Y341616D02*
X164700Y326376D01*
X190100Y326376D02*
X190100Y341616D01*
X215500Y341616D02*
X215500Y326376D01*
X240900Y326376D02*
X240900Y341616D01*
X266300Y341616D02*
X266300Y326376D01*
X291700Y326376D02*
X291700Y341616D01*
X317100Y341616D02*
X317100Y326376D01*
X342500Y326376D02*
X342500Y341616D01*
X37800Y363380D02*
X37800Y378620D01*
X63200Y378620D02*
X63200Y363380D01*
X88600Y363380D02*
X88600Y378620D01*
X114000Y378620D02*
X114000Y363380D01*
X139400Y363380D02*
X139400Y378620D01*
X164800Y378620D02*
X164800Y363380D01*
X190200Y363380D02*
X190200Y378620D01*
X215600Y378620D02*
X215600Y363380D01*
X241000Y363380D02*
X241000Y378620D01*
X266400Y378620D02*
X266400Y363380D01*
X291800Y363380D02*
X291800Y378620D01*
X317200Y378620D02*
X317200Y363380D01*
X342600Y363380D02*
X342600Y378620D01*
D14*
X285000Y235000D03*
D15*
X285000Y85000D01*
X230000Y30000D01*
D14*
X179289Y25711D03*
D15*
X183579Y30000D02*
X230000Y30000D01*
X183579Y30000D02*
X179289Y25711D01*
D14*
X112150Y307150D03*
D15*
X195962Y315962D02*
X205086Y325086D01*
X215600Y361444D02*
X215600Y371000D01*
X205086Y350930D02*
X205086Y325086D01*
X205086Y350930D02*
X215600Y361444D01*
X156609Y175438D02*
X156609Y75000D01*
X134986Y315962D02*
X195962Y315962D01*
X124426Y319426D02*
X112150Y307150D01*
X124426Y319426D02*
X131522Y319426D01*
X134986Y315962D01*
D14*
X179474Y55750D03*
D15*
X175858Y55750D02*
X156609Y75000D01*
X175858Y55750D02*
X179474Y55750D01*
D14*
X74735Y260865D03*
D15*
X74735Y257312D02*
X156609Y175438D01*
X74735Y257312D02*
X74735Y260865D01*
D14*
X65000Y278394D03*
D15*
X68394Y275000D01*
D14*
X118210Y271470D03*
D15*
X114680Y275000D02*
X68394Y275000D01*
X114680Y275000D02*
X118210Y271470D01*
D14*
X300000Y105000D03*
X100000Y140000D03*
X100000Y160000D03*
X19532Y180636D03*
X276460Y105000D03*
X330000Y205000D03*
X335000Y180000D03*
X30000Y145000D03*
X315000Y275000D03*
X351058Y310000D03*
X335000Y90000D03*
X125550Y120550D03*
X75000Y105000D03*
X256576Y167150D03*
X240000Y95000D03*
X25384Y257978D03*
X25000Y284088D03*
D15*
X70833Y255466D02*
X150936Y175363D01*
D14*
X211106Y48424D03*
D15*
X185000Y48424D01*
X150936Y51683D02*
X150936Y175363D01*
X150936Y51683D02*
X154195Y48424D01*
X185000Y48424D01*
D14*
X185000Y48424D03*
D15*
X70833Y255466D02*
X39028Y255466D01*
X27794Y266700D01*
D14*
X27794Y275000D03*
D15*
X27794Y266700D01*
D14*
X90000Y305000D03*
X120000Y235000D03*
D15*
X120000Y290000D02*
X105000Y305000D01*
X90000Y305000D01*
X120000Y263746D02*
X120000Y235000D01*
X120000Y279194D02*
X120000Y290000D01*
X124786Y268532D02*
X120000Y263746D01*
X124786Y268532D02*
X124786Y274408D01*
X120000Y279194D01*
D14*
X340000Y270000D03*
D15*
X330000Y260000D01*
X295000Y260000D01*
X280000Y260000D01*
D14*
X185000Y303424D03*
D15*
X281576Y303424D01*
X295000Y268672D02*
X295000Y260000D01*
X295000Y268672D02*
X298604Y272276D01*
X298604Y286396D01*
X281576Y303424D01*
X280000Y260000D02*
X250000Y230000D01*
X250000Y135000D01*
D14*
X250000Y135000D03*
X240000Y105000D03*
D15*
X240000Y125000D01*
X250000Y135000D01*
D14*
X127150Y312850D03*
D15*
X250000Y93844D02*
X211156Y55000D01*
X129064Y275877D02*
X127150Y277791D01*
X127150Y312850D01*
X129064Y275877D02*
X129064Y250936D01*
D14*
X239360Y150000D03*
D15*
X230000Y150000D02*
X129064Y250936D01*
X230000Y150000D02*
X239360Y150000D01*
D14*
X201376Y55000D03*
D15*
X211156Y55000D01*
X250000Y93844D02*
X250000Y125000D01*
D14*
X250000Y125000D03*
X35000Y155000D03*
D15*
X205000Y35000D02*
X211848Y41848D01*
X205000Y35000D02*
X200000Y35000D01*
X70000Y120000D02*
X70000Y200000D01*
X80000Y210000D01*
X80000Y220000D01*
D14*
X80000Y220000D03*
X85673Y255673D03*
D15*
X50000Y275000D02*
X50000Y295000D01*
X35000Y155000D02*
X55206Y134794D01*
X55408Y134794D01*
X61508Y128694D01*
X61508Y128492D01*
X70000Y120000D01*
D14*
X78298Y318298D03*
D15*
X73298Y318298D02*
X50000Y295000D01*
X73298Y318298D02*
X78298Y318298D01*
D14*
X258300Y119757D03*
D15*
X217682Y45700D02*
X213830Y41848D01*
X217682Y45700D02*
X217682Y46806D01*
X258300Y87424D01*
X213830Y41848D02*
X211848Y41848D01*
D14*
X200000Y39757D03*
D15*
X200000Y35000D01*
X141633Y31872D02*
X136872Y36633D01*
X141633Y31872D02*
X176151Y31872D01*
X179279Y35000D01*
X200000Y35000D01*
X136872Y36633D02*
X136872Y53128D01*
X70000Y120000D01*
X258300Y119757D02*
X258300Y87424D01*
X85673Y255673D02*
X81311Y260036D01*
X81311Y263589D01*
X77459Y267441D01*
X57559Y267441D02*
X50000Y275000D01*
X57559Y267441D02*
X77459Y267441D01*
D14*
X235000Y160000D03*
X152479Y304055D03*
D15*
X152479Y297449D02*
X154614Y295314D01*
X152479Y297449D02*
X152479Y304055D01*
X154614Y295314D02*
X154614Y240386D01*
X235000Y160000D01*
D14*
X260000Y259294D03*
D15*
X254294Y265000D01*
X200000Y265000D01*
X170000Y295000D01*
D14*
X271256Y277794D03*
X170000Y304386D03*
D15*
X170000Y295000D01*
D14*
X292028Y275000D03*
D15*
X274050Y275000D01*
X271256Y277794D01*
M02*
