G04 EAGLE Gerber RS-274X export*
G75*
%MOMM*%
%FSLAX34Y34*%
%LPD*%
%INTop Copper*%
%IPPOS*%
%AMOC8*
5,1,8,0,0,1.08239X$1,22.5*%
G01*
G04 Define Apertures*
%ADD10R,0.920900X0.970200*%
%ADD11R,0.970200X0.920900*%
%ADD12R,3.251200X6.451600*%
%ADD13R,6.451600X3.251200*%
%ADD14R,0.420000X0.640000*%
%ADD15R,1.200000X0.600000*%
%ADD16R,0.600000X1.500000*%
%ADD17R,1.500000X0.600000*%
%ADD18P,1.64956X8X22.5*%
%ADD19P,1.64956X8X112.5*%
%ADD20C,1.524000*%
%ADD21R,2.400000X7.500000*%
%ADD22R,0.900000X0.970200*%
%ADD23R,0.932600X0.970200*%
%ADD24R,0.420000X0.700000*%
%ADD25R,0.420000X0.450000*%
%ADD26R,2.370000X1.700000*%
%ADD27R,0.973900X0.798700*%
%ADD28R,0.798700X0.973900*%
%ADD29R,0.970200X0.900000*%
%ADD30R,0.970200X0.932600*%
%ADD31C,1.016000*%
%ADD32C,0.254000*%
%ADD33C,0.756400*%
G36*
X161646Y10220D02*
X161349Y10160D01*
X10922Y10160D01*
X10647Y10211D01*
X10392Y10375D01*
X10220Y10625D01*
X10160Y10922D01*
X10160Y146189D01*
X10211Y146463D01*
X10375Y146719D01*
X10625Y146890D01*
X10922Y146951D01*
X20530Y146951D01*
X21435Y147856D01*
X21470Y148049D01*
X21629Y148307D01*
X21877Y148483D01*
X22173Y148548D01*
X22471Y148492D01*
X22724Y148325D01*
X24471Y146578D01*
X24634Y146336D01*
X24694Y146039D01*
X24694Y142802D01*
X27802Y139694D01*
X32198Y139694D01*
X35306Y142802D01*
X35306Y147198D01*
X34111Y148393D01*
X33958Y148613D01*
X33888Y148908D01*
X33939Y149207D01*
X34102Y149462D01*
X34352Y149634D01*
X34649Y149694D01*
X37198Y149694D01*
X40306Y152802D01*
X40306Y157198D01*
X38017Y159487D01*
X37854Y159728D01*
X37794Y160025D01*
X37794Y163614D01*
X37845Y163889D01*
X38009Y164144D01*
X38259Y164316D01*
X38556Y164376D01*
X40931Y164376D01*
X41824Y165269D01*
X41824Y172531D01*
X41244Y173111D01*
X41086Y173342D01*
X41021Y173638D01*
X41077Y173936D01*
X41244Y174189D01*
X41824Y174769D01*
X41824Y182095D01*
X41805Y182123D01*
X41739Y182419D01*
X41795Y182718D01*
X41963Y182970D01*
X42840Y183848D01*
X42840Y187138D01*
X25760Y187138D01*
X25760Y183752D01*
X25744Y183663D01*
X25886Y183636D01*
X26139Y183469D01*
X26638Y182970D01*
X26796Y182740D01*
X26861Y182444D01*
X26805Y182146D01*
X26776Y182102D01*
X26776Y181956D01*
X26725Y181681D01*
X26561Y181426D01*
X26311Y181254D01*
X26014Y181194D01*
X25600Y181194D01*
X25326Y181245D01*
X25070Y181409D01*
X24899Y181659D01*
X24838Y181956D01*
X24838Y182930D01*
X24854Y183019D01*
X24712Y183045D01*
X24459Y183213D01*
X21730Y185942D01*
X17334Y185942D01*
X14226Y182834D01*
X14226Y178438D01*
X17074Y175590D01*
X17227Y175371D01*
X17297Y175076D01*
X17246Y174777D01*
X17083Y174521D01*
X16833Y174350D01*
X16535Y174290D01*
X10922Y174290D01*
X10647Y174341D01*
X10392Y174504D01*
X10220Y174754D01*
X10160Y175052D01*
X10160Y212874D01*
X10211Y213149D01*
X10375Y213404D01*
X10625Y213576D01*
X10922Y213636D01*
X75307Y213636D01*
X76216Y214544D01*
X76247Y214720D01*
X76406Y214978D01*
X76654Y215153D01*
X76950Y215218D01*
X77248Y215163D01*
X77501Y214995D01*
X77802Y214694D01*
X82198Y214694D01*
X85306Y217802D01*
X85306Y222198D01*
X83017Y224487D01*
X82854Y224728D01*
X82794Y225025D01*
X82794Y248527D01*
X82850Y248813D01*
X83017Y249066D01*
X84095Y250144D01*
X84337Y250307D01*
X84634Y250367D01*
X87634Y250367D01*
X87909Y250316D01*
X88164Y250153D01*
X88336Y249903D01*
X88396Y249605D01*
X88396Y209417D01*
X88340Y209131D01*
X88173Y208878D01*
X87926Y208631D01*
X87926Y187262D01*
X87875Y186987D01*
X87711Y186732D01*
X87461Y186560D01*
X87164Y186500D01*
X72949Y186500D01*
X60096Y173647D01*
X59854Y173484D01*
X59557Y173424D01*
X52669Y173424D01*
X51776Y172531D01*
X51776Y165269D01*
X52669Y164376D01*
X65931Y164376D01*
X66824Y165269D01*
X66824Y172157D01*
X66880Y172443D01*
X67047Y172696D01*
X75040Y180689D01*
X75282Y180852D01*
X75579Y180912D01*
X87164Y180912D01*
X87439Y180861D01*
X87694Y180697D01*
X87866Y180447D01*
X87926Y180150D01*
X87926Y172369D01*
X88819Y171476D01*
X92634Y171476D01*
X92909Y171425D01*
X93164Y171261D01*
X93336Y171011D01*
X93396Y170714D01*
X93396Y158686D01*
X94401Y156259D01*
X96259Y154401D01*
X96601Y154260D01*
X96821Y154120D01*
X97001Y153875D01*
X97071Y153580D01*
X97020Y153281D01*
X96856Y153026D01*
X96606Y152854D01*
X96309Y152794D01*
X50157Y152794D01*
X30723Y133360D01*
X30492Y133202D01*
X30196Y133137D01*
X29898Y133193D01*
X29645Y133360D01*
X29482Y133524D01*
X21906Y133524D01*
X16550Y128168D01*
X16550Y120592D01*
X21906Y115236D01*
X29482Y115236D01*
X34838Y120592D01*
X34838Y128168D01*
X34674Y128331D01*
X34516Y128562D01*
X34451Y128858D01*
X34507Y129156D01*
X34674Y129409D01*
X52248Y146983D01*
X52490Y147146D01*
X52787Y147206D01*
X77763Y147206D01*
X78038Y147155D01*
X78293Y146991D01*
X78465Y146741D01*
X78525Y146444D01*
X78525Y137110D01*
X79418Y136218D01*
X90382Y136218D01*
X91275Y137110D01*
X91275Y138790D01*
X91326Y139065D01*
X91490Y139320D01*
X91740Y139492D01*
X92037Y139552D01*
X93932Y139552D01*
X94207Y139501D01*
X94462Y139337D01*
X94634Y139087D01*
X94694Y138790D01*
X94694Y137802D01*
X97802Y134694D01*
X102198Y134694D01*
X103681Y136177D01*
X103911Y136335D01*
X104207Y136400D01*
X104506Y136344D01*
X104697Y136218D01*
X115682Y136218D01*
X116575Y137110D01*
X116575Y143734D01*
X116622Y143997D01*
X116781Y144255D01*
X117029Y144431D01*
X117325Y144496D01*
X117623Y144440D01*
X117876Y144273D01*
X129143Y133006D01*
X130514Y133006D01*
X130789Y132955D01*
X131044Y132791D01*
X131216Y132541D01*
X131276Y132244D01*
X131276Y132053D01*
X131329Y131812D01*
X131276Y131528D01*
X131276Y130682D01*
X131225Y130407D01*
X131061Y130152D01*
X130811Y129980D01*
X130514Y129920D01*
X121669Y129920D01*
X121620Y129871D01*
X121378Y129708D01*
X121081Y129648D01*
X117337Y129648D01*
X117062Y129699D01*
X116807Y129863D01*
X116635Y130113D01*
X116575Y130410D01*
X116575Y132090D01*
X115682Y132983D01*
X104718Y132983D01*
X103825Y132090D01*
X103825Y130410D01*
X103774Y130135D01*
X103610Y129880D01*
X103360Y129708D01*
X103063Y129648D01*
X92037Y129648D01*
X91762Y129699D01*
X91507Y129863D01*
X91335Y130113D01*
X91275Y130410D01*
X91275Y132090D01*
X90382Y132983D01*
X79418Y132983D01*
X79120Y132685D01*
X78890Y132527D01*
X78593Y132462D01*
X78295Y132517D01*
X78042Y132685D01*
X75523Y135204D01*
X75360Y135446D01*
X75300Y135743D01*
X75300Y142982D01*
X74407Y143875D01*
X63443Y143875D01*
X62550Y142982D01*
X62550Y132720D01*
X63443Y131827D01*
X70682Y131827D01*
X70968Y131771D01*
X71221Y131604D01*
X73025Y129800D01*
X73178Y129580D01*
X73248Y129285D01*
X73197Y128986D01*
X73033Y128731D01*
X72783Y128559D01*
X72486Y128499D01*
X63443Y128499D01*
X62550Y127606D01*
X62550Y117018D01*
X63443Y116125D01*
X74407Y116125D01*
X75300Y117018D01*
X75300Y117256D01*
X75347Y117520D01*
X75506Y117778D01*
X75754Y117953D01*
X76050Y118018D01*
X76348Y117963D01*
X76601Y117795D01*
X77734Y116662D01*
X98663Y116662D01*
X98938Y116610D01*
X99193Y116447D01*
X99365Y116197D01*
X99425Y115900D01*
X99425Y110977D01*
X99374Y110702D01*
X99210Y110446D01*
X98960Y110275D01*
X98663Y110215D01*
X94437Y110215D01*
X94162Y110266D01*
X93907Y110429D01*
X93735Y110679D01*
X93675Y110977D01*
X93675Y112656D01*
X92782Y113549D01*
X81818Y113549D01*
X80925Y112656D01*
X80925Y108556D01*
X80874Y108281D01*
X80710Y108026D01*
X80460Y107854D01*
X80163Y107794D01*
X80025Y107794D01*
X79739Y107850D01*
X79487Y108017D01*
X77198Y110306D01*
X72802Y110306D01*
X69694Y107198D01*
X69694Y102802D01*
X72802Y99694D01*
X77198Y99694D01*
X79487Y101983D01*
X79728Y102146D01*
X80025Y102206D01*
X80588Y102206D01*
X80874Y102150D01*
X81127Y101983D01*
X81818Y101292D01*
X92782Y101292D01*
X93675Y102185D01*
X93675Y103865D01*
X93726Y104139D01*
X93890Y104395D01*
X94140Y104566D01*
X94437Y104627D01*
X103232Y104627D01*
X103400Y104794D01*
X103641Y104957D01*
X103938Y105018D01*
X111282Y105018D01*
X112175Y105910D01*
X112175Y115900D01*
X112226Y116174D01*
X112390Y116430D01*
X112640Y116601D01*
X112937Y116662D01*
X115872Y116662D01*
X116158Y116606D01*
X116410Y116438D01*
X123843Y109006D01*
X129574Y109006D01*
X129838Y108959D01*
X130096Y108800D01*
X130271Y108552D01*
X130336Y108256D01*
X130281Y107958D01*
X130260Y107927D01*
X130260Y104562D01*
X150340Y104562D01*
X150340Y107852D01*
X149547Y108645D01*
X149384Y108887D01*
X149324Y109184D01*
X149324Y115547D01*
X149271Y115788D01*
X149324Y116072D01*
X149324Y123547D01*
X149271Y123788D01*
X149324Y124072D01*
X149324Y131547D01*
X149271Y131788D01*
X149324Y132072D01*
X149324Y139547D01*
X149271Y139788D01*
X149324Y140072D01*
X149324Y147431D01*
X148431Y148324D01*
X132169Y148324D01*
X131276Y147431D01*
X131276Y140615D01*
X131229Y140352D01*
X131070Y140094D01*
X130822Y139918D01*
X130526Y139853D01*
X130228Y139909D01*
X129975Y140076D01*
X117257Y152794D01*
X103691Y152794D01*
X103433Y152839D01*
X103174Y152996D01*
X102997Y153242D01*
X102929Y153538D01*
X102983Y153836D01*
X103148Y154091D01*
X103400Y154260D01*
X103741Y154401D01*
X105599Y156259D01*
X106604Y158686D01*
X106604Y170714D01*
X106655Y170989D01*
X106819Y171244D01*
X107069Y171416D01*
X107260Y171454D01*
X107261Y171456D01*
X107492Y171614D01*
X107788Y171679D01*
X108086Y171623D01*
X108308Y171476D01*
X113781Y171476D01*
X114674Y172369D01*
X114674Y178908D01*
X114730Y179194D01*
X114897Y179447D01*
X122794Y187344D01*
X122794Y229975D01*
X122850Y230261D01*
X123017Y230513D01*
X125306Y232802D01*
X125306Y237198D01*
X122198Y240306D01*
X121797Y240306D01*
X121534Y240353D01*
X121276Y240512D01*
X121100Y240760D01*
X121035Y241056D01*
X121091Y241354D01*
X121258Y241607D01*
X132375Y252724D01*
X132595Y252877D01*
X132890Y252947D01*
X133189Y252896D01*
X133444Y252732D01*
X133616Y252482D01*
X133676Y252185D01*
X133676Y201069D01*
X134569Y200176D01*
X159831Y200176D01*
X160724Y201069D01*
X160724Y214497D01*
X160771Y214760D01*
X160930Y215018D01*
X161178Y215194D01*
X161474Y215259D01*
X161772Y215203D01*
X162025Y215036D01*
X192659Y184401D01*
X195086Y183396D01*
X245967Y183396D01*
X246230Y183349D01*
X246488Y183190D01*
X246664Y182942D01*
X246729Y182646D01*
X246673Y182348D01*
X246506Y182095D01*
X246158Y181747D01*
X245916Y181584D01*
X245619Y181524D01*
X241019Y181524D01*
X240126Y180631D01*
X240126Y172369D01*
X241019Y171476D01*
X243421Y171476D01*
X243702Y171423D01*
X243956Y171257D01*
X244125Y171006D01*
X244651Y169735D01*
X251016Y163371D01*
X251169Y163151D01*
X251239Y162856D01*
X251188Y162557D01*
X251024Y162302D01*
X250774Y162130D01*
X250477Y162070D01*
X250361Y162070D01*
X250075Y162126D01*
X249823Y162293D01*
X249322Y162794D01*
X240025Y162794D01*
X239739Y162850D01*
X239487Y163017D01*
X237198Y165306D01*
X232802Y165306D01*
X229694Y162198D01*
X229694Y157802D01*
X232802Y154694D01*
X234711Y154694D01*
X234974Y154647D01*
X235232Y154488D01*
X235407Y154240D01*
X235472Y153944D01*
X235417Y153646D01*
X235249Y153393D01*
X234054Y152198D01*
X234054Y149086D01*
X234003Y148811D01*
X233839Y148556D01*
X233589Y148384D01*
X233292Y148324D01*
X217169Y148324D01*
X216276Y147431D01*
X216276Y140053D01*
X216329Y139812D01*
X216276Y139528D01*
X216276Y132053D01*
X216329Y131812D01*
X216276Y131528D01*
X216276Y124053D01*
X216329Y123812D01*
X216276Y123528D01*
X216276Y116053D01*
X216329Y115812D01*
X216276Y115528D01*
X216276Y108053D01*
X216329Y107812D01*
X216276Y107528D01*
X216276Y100053D01*
X216329Y99812D01*
X216276Y99528D01*
X216276Y92053D01*
X216329Y91812D01*
X216276Y91528D01*
X216276Y84169D01*
X217169Y83276D01*
X233431Y83276D01*
X234324Y84169D01*
X234324Y84868D01*
X234375Y85143D01*
X234539Y85398D01*
X234789Y85570D01*
X235086Y85630D01*
X243881Y85630D01*
X244134Y85883D01*
X244376Y86046D01*
X244673Y86106D01*
X244863Y86106D01*
X245138Y86055D01*
X245393Y85891D01*
X245565Y85641D01*
X245625Y85344D01*
X245625Y83418D01*
X246518Y82525D01*
X257106Y82525D01*
X257999Y83418D01*
X257999Y94382D01*
X257106Y95275D01*
X255368Y95275D01*
X255093Y95326D01*
X254838Y95490D01*
X254666Y95740D01*
X254606Y96037D01*
X254606Y97463D01*
X254657Y97738D01*
X254821Y97993D01*
X255071Y98165D01*
X255368Y98225D01*
X255790Y98225D01*
X256683Y99118D01*
X256683Y110082D01*
X255790Y110975D01*
X255309Y110975D01*
X255046Y111022D01*
X254788Y111181D01*
X254612Y111429D01*
X254547Y111725D01*
X254603Y112023D01*
X254770Y112276D01*
X256722Y114228D01*
X256964Y114391D01*
X257261Y114451D01*
X260498Y114451D01*
X263606Y117559D01*
X263606Y121955D01*
X260498Y125063D01*
X256068Y125063D01*
X255793Y125114D01*
X255538Y125278D01*
X255366Y125528D01*
X255306Y125825D01*
X255306Y126039D01*
X255362Y126325D01*
X255529Y126578D01*
X267794Y138843D01*
X267794Y146157D01*
X265196Y148755D01*
X265038Y148985D01*
X264973Y149282D01*
X265029Y149580D01*
X265196Y149832D01*
X283999Y168635D01*
X284219Y168788D01*
X284514Y168858D01*
X284813Y168807D01*
X285068Y168644D01*
X285240Y168394D01*
X285300Y168096D01*
X285300Y165424D01*
X286788Y163936D01*
X293078Y163936D01*
X293078Y170238D01*
X302380Y170238D01*
X302380Y173528D01*
X300892Y175016D01*
X299122Y175016D01*
X298859Y175063D01*
X298601Y175222D01*
X298425Y175470D01*
X298360Y175766D01*
X298416Y176064D01*
X298583Y176317D01*
X307725Y185459D01*
X307967Y185622D01*
X308264Y185682D01*
X310554Y185682D01*
X310829Y185631D01*
X311084Y185467D01*
X311256Y185217D01*
X311316Y184920D01*
X311316Y184845D01*
X311896Y184265D01*
X312054Y184034D01*
X312119Y183738D01*
X312063Y183440D01*
X311896Y183187D01*
X311316Y182607D01*
X311316Y175281D01*
X311336Y175253D01*
X311401Y174957D01*
X311345Y174658D01*
X311178Y174406D01*
X310300Y173528D01*
X310300Y170238D01*
X327380Y170238D01*
X327380Y173528D01*
X326503Y174406D01*
X326345Y174636D01*
X326279Y174932D01*
X326335Y175230D01*
X326364Y175274D01*
X326364Y176444D01*
X326415Y176719D01*
X326579Y176974D01*
X326829Y177146D01*
X327126Y177206D01*
X329975Y177206D01*
X330261Y177150D01*
X330513Y176983D01*
X332802Y174694D01*
X337198Y174694D01*
X340306Y177802D01*
X340306Y182198D01*
X337074Y185430D01*
X336921Y185649D01*
X336851Y185944D01*
X336902Y186243D01*
X337066Y186499D01*
X337316Y186670D01*
X337613Y186731D01*
X346701Y186731D01*
X347594Y187623D01*
X347594Y196873D01*
X346701Y197766D01*
X335699Y197766D01*
X334807Y196873D01*
X334807Y195804D01*
X334755Y195529D01*
X334592Y195274D01*
X334342Y195102D01*
X334045Y195042D01*
X321455Y195042D01*
X319636Y193223D01*
X319394Y193060D01*
X319097Y193000D01*
X312209Y193000D01*
X311316Y192107D01*
X311316Y192032D01*
X311265Y191757D01*
X311101Y191502D01*
X310851Y191330D01*
X310554Y191270D01*
X305634Y191270D01*
X302665Y188301D01*
X302445Y188148D01*
X302150Y188078D01*
X301851Y188129D01*
X301596Y188292D01*
X301424Y188542D01*
X301364Y188840D01*
X301364Y192107D01*
X300471Y193000D01*
X287209Y193000D01*
X286316Y192107D01*
X286316Y185219D01*
X286260Y184933D01*
X286093Y184680D01*
X280930Y179517D01*
X280688Y179354D01*
X280391Y179294D01*
X267636Y179294D01*
X267361Y179345D01*
X267106Y179509D01*
X266934Y179759D01*
X266874Y180056D01*
X266874Y180631D01*
X265981Y181524D01*
X260510Y181524D01*
X260308Y181386D01*
X260012Y181321D01*
X259714Y181377D01*
X259492Y181524D01*
X254881Y181524D01*
X254595Y181580D01*
X254342Y181747D01*
X253994Y182095D01*
X253841Y182315D01*
X253771Y182610D01*
X253822Y182909D01*
X253986Y183164D01*
X254236Y183336D01*
X254533Y183396D01*
X259814Y183396D01*
X262241Y184401D01*
X262592Y184753D01*
X262834Y184916D01*
X263131Y184976D01*
X265981Y184976D01*
X266874Y185869D01*
X266874Y208631D01*
X265981Y209524D01*
X260510Y209524D01*
X260308Y209386D01*
X260012Y209321D01*
X259714Y209377D01*
X259492Y209524D01*
X254010Y209524D01*
X253808Y209386D01*
X253512Y209321D01*
X253214Y209377D01*
X252992Y209524D01*
X252366Y209524D01*
X252091Y209575D01*
X251836Y209739D01*
X251664Y209989D01*
X251604Y210286D01*
X251604Y262314D01*
X251655Y262589D01*
X251819Y262844D01*
X252069Y263016D01*
X252366Y263076D01*
X253591Y263076D01*
X253792Y263214D01*
X254088Y263279D01*
X254386Y263223D01*
X254639Y263056D01*
X254658Y263037D01*
X254702Y263029D01*
X254960Y262870D01*
X255135Y262622D01*
X255200Y262326D01*
X255145Y262028D01*
X254977Y261775D01*
X254694Y261492D01*
X254694Y257096D01*
X257802Y253988D01*
X262198Y253988D01*
X265306Y257096D01*
X265306Y261039D01*
X265362Y261325D01*
X265529Y261578D01*
X266644Y262693D01*
X266644Y262823D01*
X266700Y263109D01*
X266867Y263362D01*
X267474Y263969D01*
X267474Y269745D01*
X267530Y270031D01*
X267697Y270284D01*
X269678Y272265D01*
X269920Y272428D01*
X270217Y272488D01*
X273454Y272488D01*
X273737Y272771D01*
X273957Y272924D01*
X274252Y272994D01*
X274551Y272943D01*
X274806Y272780D01*
X274978Y272530D01*
X275038Y272233D01*
X275038Y260511D01*
X276043Y258084D01*
X288577Y245551D01*
X288740Y245309D01*
X288800Y245012D01*
X288800Y240543D01*
X288753Y240280D01*
X288594Y240022D01*
X288346Y239847D01*
X288050Y239782D01*
X287752Y239837D01*
X287499Y240005D01*
X287198Y240306D01*
X282802Y240306D01*
X279694Y237198D01*
X279694Y232802D01*
X282802Y229694D01*
X287198Y229694D01*
X287499Y229995D01*
X287719Y230148D01*
X288014Y230218D01*
X288313Y230167D01*
X288568Y230004D01*
X288740Y229754D01*
X288800Y229457D01*
X288800Y219529D01*
X289693Y218636D01*
X355471Y218636D01*
X356364Y219529D01*
X356364Y253303D01*
X355471Y254196D01*
X298926Y254196D01*
X298640Y254252D01*
X298387Y254419D01*
X294747Y258059D01*
X294594Y258279D01*
X294525Y258574D01*
X294575Y258873D01*
X294739Y259128D01*
X294989Y259300D01*
X295286Y259360D01*
X301145Y259360D01*
X301145Y264138D01*
X293367Y264138D01*
X293367Y261280D01*
X293320Y261016D01*
X293160Y260758D01*
X292913Y260583D01*
X292617Y260518D01*
X292319Y260573D01*
X292066Y260741D01*
X288469Y264337D01*
X288306Y264579D01*
X288246Y264876D01*
X288246Y269439D01*
X288293Y269702D01*
X288452Y269960D01*
X288700Y270135D01*
X288996Y270200D01*
X289294Y270145D01*
X289547Y269977D01*
X289830Y269694D01*
X292605Y269694D01*
X292879Y269643D01*
X293135Y269479D01*
X293306Y269229D01*
X293367Y268932D01*
X293367Y265662D01*
X301145Y265662D01*
X301145Y270440D01*
X296811Y270440D01*
X296548Y270487D01*
X296290Y270646D01*
X296115Y270894D01*
X296050Y271190D01*
X296105Y271488D01*
X296273Y271741D01*
X297334Y272802D01*
X297334Y275061D01*
X297390Y275347D01*
X297557Y275599D01*
X301111Y279153D01*
X301352Y279316D01*
X301649Y279376D01*
X308538Y279376D01*
X309431Y280269D01*
X309431Y287531D01*
X308538Y288424D01*
X295275Y288424D01*
X294383Y287531D01*
X294383Y281068D01*
X294331Y280793D01*
X294168Y280538D01*
X293918Y280366D01*
X293621Y280306D01*
X289830Y280306D01*
X289547Y280023D01*
X289327Y279870D01*
X289032Y279800D01*
X288733Y279851D01*
X288478Y280014D01*
X288306Y280264D01*
X288246Y280561D01*
X288246Y289672D01*
X287241Y292099D01*
X276391Y302949D01*
X273964Y303954D01*
X262536Y303954D01*
X260109Y302949D01*
X258508Y301347D01*
X258266Y301184D01*
X257969Y301124D01*
X254610Y301124D01*
X254408Y300986D01*
X254112Y300921D01*
X253814Y300977D01*
X253592Y301124D01*
X248110Y301124D01*
X247908Y300986D01*
X247612Y300921D01*
X247314Y300977D01*
X247092Y301124D01*
X244843Y301124D01*
X244557Y301180D01*
X244304Y301347D01*
X223964Y321687D01*
X223804Y321923D01*
X223741Y322220D01*
X223799Y322517D01*
X224644Y324557D01*
X224644Y343435D01*
X223252Y346796D01*
X220680Y349368D01*
X217319Y350760D01*
X213681Y350760D01*
X210320Y349368D01*
X207748Y346796D01*
X206356Y343435D01*
X206356Y337552D01*
X206305Y337277D01*
X206141Y337022D01*
X205891Y336850D01*
X205594Y336790D01*
X200006Y336790D01*
X199731Y336841D01*
X199476Y337005D01*
X199304Y337255D01*
X199244Y337552D01*
X199244Y343435D01*
X197852Y346796D01*
X195280Y349368D01*
X193464Y350120D01*
X193226Y350276D01*
X193054Y350527D01*
X192994Y350824D01*
X192994Y354131D01*
X193047Y354411D01*
X193213Y354665D01*
X193464Y354835D01*
X195380Y355628D01*
X197952Y358200D01*
X199344Y361561D01*
X199344Y380439D01*
X197952Y383800D01*
X195380Y386372D01*
X192019Y387764D01*
X188381Y387764D01*
X185020Y386372D01*
X182448Y383800D01*
X181056Y380439D01*
X181056Y361561D01*
X182448Y358200D01*
X185020Y355628D01*
X186936Y354835D01*
X187174Y354678D01*
X187346Y354428D01*
X187406Y354131D01*
X187406Y350907D01*
X187353Y350626D01*
X187187Y350372D01*
X186936Y350203D01*
X184920Y349368D01*
X183313Y347760D01*
X183082Y347602D01*
X182786Y347537D01*
X182488Y347593D01*
X182235Y347760D01*
X180620Y349375D01*
X172690Y357305D01*
X172530Y357541D01*
X172467Y357838D01*
X172525Y358135D01*
X173944Y361561D01*
X173944Y380439D01*
X172552Y383800D01*
X169980Y386372D01*
X166619Y387764D01*
X162981Y387764D01*
X159620Y386372D01*
X157048Y383800D01*
X155656Y380439D01*
X155656Y374556D01*
X155605Y374281D01*
X155441Y374026D01*
X155191Y373854D01*
X154894Y373794D01*
X149306Y373794D01*
X149031Y373845D01*
X148776Y374009D01*
X148604Y374259D01*
X148544Y374556D01*
X148544Y380439D01*
X147152Y383800D01*
X144580Y386372D01*
X141219Y387764D01*
X137581Y387764D01*
X134220Y386372D01*
X131648Y383800D01*
X130256Y380439D01*
X130256Y361561D01*
X131648Y358200D01*
X134220Y355628D01*
X137581Y354236D01*
X141219Y354236D01*
X144580Y355628D01*
X147152Y358200D01*
X148544Y361561D01*
X148544Y367444D01*
X148595Y367719D01*
X148759Y367974D01*
X149009Y368146D01*
X149306Y368206D01*
X154894Y368206D01*
X155169Y368155D01*
X155424Y367991D01*
X155596Y367741D01*
X155656Y367444D01*
X155656Y361561D01*
X157048Y358200D01*
X159620Y355628D01*
X162981Y354236D01*
X166619Y354236D01*
X167024Y354404D01*
X167303Y354462D01*
X167601Y354406D01*
X167854Y354238D01*
X176669Y345424D01*
X176832Y345182D01*
X176892Y344885D01*
X176892Y320905D01*
X181983Y315814D01*
X182146Y315573D01*
X182206Y315275D01*
X182206Y308449D01*
X182150Y308163D01*
X181983Y307911D01*
X179694Y305622D01*
X179694Y301226D01*
X182826Y298094D01*
X182979Y297875D01*
X183049Y297580D01*
X182998Y297281D01*
X182834Y297025D01*
X182584Y296854D01*
X182287Y296794D01*
X180427Y296794D01*
X179535Y295901D01*
X179535Y294488D01*
X179477Y294197D01*
X178448Y291714D01*
X178448Y289086D01*
X179477Y286603D01*
X179535Y286312D01*
X179535Y284899D01*
X180427Y284007D01*
X183079Y284007D01*
X183370Y283949D01*
X183738Y283796D01*
X201734Y283796D01*
X202009Y283745D01*
X202264Y283581D01*
X202436Y283331D01*
X202496Y283034D01*
X202496Y278986D01*
X202445Y278711D01*
X202281Y278456D01*
X202031Y278284D01*
X201734Y278224D01*
X195569Y278224D01*
X194676Y277331D01*
X194676Y202903D01*
X194629Y202640D01*
X194470Y202382D01*
X194222Y202206D01*
X193926Y202141D01*
X193628Y202197D01*
X193375Y202364D01*
X160947Y234792D01*
X160784Y235034D01*
X160724Y235331D01*
X160724Y277331D01*
X159831Y278224D01*
X142603Y278224D01*
X142340Y278271D01*
X142082Y278430D01*
X141906Y278678D01*
X141841Y278974D01*
X141897Y279272D01*
X142064Y279525D01*
X144172Y281633D01*
X144414Y281796D01*
X144711Y281856D01*
X147988Y281856D01*
X150304Y284173D01*
X150546Y284336D01*
X150843Y284396D01*
X163418Y284396D01*
X163704Y284340D01*
X163957Y284173D01*
X164123Y284007D01*
X166775Y284007D01*
X167066Y283949D01*
X167434Y283796D01*
X170062Y283796D01*
X170430Y283949D01*
X170721Y284007D01*
X173373Y284007D01*
X174266Y284899D01*
X174266Y286312D01*
X174324Y286603D01*
X175352Y289086D01*
X175352Y291714D01*
X174324Y294197D01*
X174266Y294488D01*
X174266Y295901D01*
X173373Y296794D01*
X171570Y296794D01*
X171278Y296852D01*
X169437Y297614D01*
X169217Y297754D01*
X169037Y297999D01*
X168967Y298294D01*
X169018Y298593D01*
X169182Y298848D01*
X169432Y299020D01*
X169729Y299080D01*
X172198Y299080D01*
X175306Y302188D01*
X175306Y306584D01*
X172198Y309692D01*
X168961Y309692D01*
X168675Y309748D01*
X168422Y309915D01*
X167717Y310620D01*
X167554Y310862D01*
X167494Y311159D01*
X167494Y317127D01*
X167547Y317407D01*
X167713Y317661D01*
X167964Y317831D01*
X169880Y318624D01*
X172452Y321196D01*
X173844Y324557D01*
X173844Y343435D01*
X172452Y346796D01*
X169880Y349368D01*
X166519Y350760D01*
X162881Y350760D01*
X159520Y349368D01*
X156948Y346796D01*
X155556Y343435D01*
X155556Y324557D01*
X156948Y321196D01*
X159520Y318624D01*
X161436Y317831D01*
X161674Y317674D01*
X161846Y317424D01*
X161906Y317127D01*
X161906Y308529D01*
X164471Y305964D01*
X164634Y305722D01*
X164694Y305425D01*
X164694Y302188D01*
X167977Y298905D01*
X168130Y298685D01*
X168200Y298390D01*
X168149Y298091D01*
X167986Y297836D01*
X167736Y297664D01*
X167439Y297604D01*
X155371Y297604D01*
X155108Y297651D01*
X154850Y297810D01*
X154675Y298058D01*
X154610Y298354D01*
X154665Y298652D01*
X154833Y298905D01*
X157785Y301857D01*
X157785Y306253D01*
X154621Y309416D01*
X154620Y309416D01*
X154367Y309584D01*
X153413Y310538D01*
X145442Y318509D01*
X145284Y318740D01*
X145219Y319036D01*
X145275Y319334D01*
X145442Y319587D01*
X147052Y321196D01*
X148444Y324557D01*
X148444Y343435D01*
X147052Y346796D01*
X144480Y349368D01*
X141119Y350760D01*
X137481Y350760D01*
X134120Y349368D01*
X131548Y346796D01*
X130156Y343435D01*
X130156Y324557D01*
X131548Y321196D01*
X134120Y318624D01*
X137481Y317232D01*
X138501Y317232D01*
X138787Y317176D01*
X139040Y317009D01*
X147946Y308103D01*
X148104Y307873D01*
X148169Y307576D01*
X148113Y307278D01*
X147946Y307025D01*
X147173Y306253D01*
X147173Y301857D01*
X147585Y301445D01*
X147738Y301225D01*
X147808Y300930D01*
X147757Y300631D01*
X147593Y300376D01*
X147343Y300204D01*
X147046Y300144D01*
X140412Y300144D01*
X135056Y294788D01*
X135056Y291511D01*
X135000Y291225D01*
X134833Y290972D01*
X133992Y290131D01*
X133750Y289968D01*
X133453Y289908D01*
X131151Y289908D01*
X128724Y288903D01*
X122997Y283176D01*
X121992Y280749D01*
X121992Y277032D01*
X121945Y276768D01*
X121786Y276510D01*
X121538Y276335D01*
X121242Y276270D01*
X120944Y276325D01*
X120691Y276493D01*
X120408Y276776D01*
X116012Y276776D01*
X112904Y273668D01*
X112904Y272041D01*
X112857Y271778D01*
X112698Y271520D01*
X112450Y271344D01*
X112154Y271279D01*
X111856Y271335D01*
X111603Y271502D01*
X111581Y271524D01*
X106110Y271524D01*
X105908Y271386D01*
X105612Y271321D01*
X105314Y271377D01*
X105092Y271524D01*
X99610Y271524D01*
X99408Y271386D01*
X99112Y271321D01*
X98814Y271377D01*
X98592Y271524D01*
X94166Y271524D01*
X93880Y271580D01*
X93838Y271608D01*
X93541Y271731D01*
X93294Y271896D01*
X93091Y272099D01*
X90664Y273104D01*
X88036Y273104D01*
X85609Y272099D01*
X84609Y271098D01*
X84389Y270945D01*
X84094Y270875D01*
X83795Y270926D01*
X83540Y271090D01*
X83368Y271340D01*
X83308Y271637D01*
X83308Y273653D01*
X83364Y273939D01*
X83531Y274192D01*
X84928Y275589D01*
X85159Y275747D01*
X85455Y275812D01*
X85753Y275756D01*
X86006Y275589D01*
X86619Y274976D01*
X111581Y274976D01*
X112474Y275869D01*
X112474Y295107D01*
X112530Y295393D01*
X112697Y295646D01*
X112794Y295743D01*
X112794Y301082D01*
X112845Y301357D01*
X113009Y301612D01*
X113259Y301784D01*
X113556Y301844D01*
X114348Y301844D01*
X117456Y304952D01*
X117456Y309348D01*
X114348Y312456D01*
X109952Y312456D01*
X106844Y309348D01*
X106844Y304952D01*
X106983Y304813D01*
X107146Y304572D01*
X107206Y304275D01*
X107206Y300286D01*
X107155Y300011D01*
X106991Y299756D01*
X106741Y299584D01*
X106444Y299524D01*
X106110Y299524D01*
X105908Y299386D01*
X105612Y299321D01*
X105314Y299377D01*
X105092Y299524D01*
X99610Y299524D01*
X99408Y299386D01*
X99112Y299321D01*
X98814Y299377D01*
X98592Y299524D01*
X93867Y299524D01*
X93604Y299571D01*
X93346Y299730D01*
X93171Y299978D01*
X93106Y300274D01*
X93161Y300572D01*
X93329Y300825D01*
X95306Y302802D01*
X95306Y307198D01*
X92198Y310306D01*
X92056Y310306D01*
X91781Y310357D01*
X91526Y310521D01*
X91354Y310771D01*
X91294Y311068D01*
X91294Y317127D01*
X91347Y317407D01*
X91513Y317661D01*
X91764Y317831D01*
X93680Y318624D01*
X96252Y321196D01*
X97644Y324557D01*
X97644Y343435D01*
X96252Y346796D01*
X93680Y349368D01*
X90319Y350760D01*
X86681Y350760D01*
X83320Y349368D01*
X82181Y348228D01*
X81961Y348075D01*
X81666Y348006D01*
X81367Y348056D01*
X81112Y348220D01*
X80940Y348470D01*
X80880Y348767D01*
X80880Y356329D01*
X80927Y356592D01*
X81086Y356850D01*
X81334Y357026D01*
X81630Y357091D01*
X81928Y357035D01*
X82181Y356868D01*
X83420Y355628D01*
X86781Y354236D01*
X90419Y354236D01*
X93780Y355628D01*
X96352Y358200D01*
X97744Y361561D01*
X97744Y380439D01*
X96352Y383800D01*
X93780Y386372D01*
X90419Y387764D01*
X86781Y387764D01*
X83420Y386372D01*
X80848Y383800D01*
X79456Y380439D01*
X79456Y366123D01*
X79400Y365837D01*
X79233Y365584D01*
X75292Y361643D01*
X75292Y323111D01*
X75236Y322825D01*
X75069Y322573D01*
X72992Y320496D01*
X72992Y316100D01*
X76100Y312992D01*
X80496Y312992D01*
X83604Y316100D01*
X83604Y317366D01*
X83653Y317635D01*
X83814Y317892D01*
X84063Y318065D01*
X84360Y318128D01*
X84657Y318070D01*
X85236Y317831D01*
X85474Y317674D01*
X85646Y317424D01*
X85706Y317127D01*
X85706Y308525D01*
X85650Y308239D01*
X85483Y307987D01*
X84694Y307198D01*
X84694Y302802D01*
X86757Y300740D01*
X86915Y300509D01*
X86980Y300213D01*
X86924Y299915D01*
X86757Y299662D01*
X85726Y298631D01*
X85726Y295381D01*
X85670Y295095D01*
X85503Y294842D01*
X73941Y283280D01*
X73721Y283127D01*
X73426Y283057D01*
X73127Y283108D01*
X72872Y283272D01*
X72700Y283522D01*
X72640Y283819D01*
X72640Y285938D01*
X63338Y285938D01*
X63338Y292240D01*
X62480Y292240D01*
X62216Y292287D01*
X61958Y292446D01*
X61783Y292694D01*
X61718Y292990D01*
X61773Y293288D01*
X61941Y293541D01*
X65894Y297494D01*
X65894Y317127D01*
X65947Y317407D01*
X66113Y317661D01*
X66364Y317831D01*
X68280Y318624D01*
X70852Y321196D01*
X72244Y324557D01*
X72244Y343435D01*
X70852Y346796D01*
X68280Y349368D01*
X64919Y350760D01*
X61281Y350760D01*
X57920Y349368D01*
X55348Y346796D01*
X53956Y343435D01*
X53956Y324557D01*
X55348Y321196D01*
X57920Y318624D01*
X59836Y317831D01*
X60074Y317674D01*
X60246Y317424D01*
X60306Y317127D01*
X60306Y300124D01*
X60250Y299838D01*
X60083Y299585D01*
X52512Y292015D01*
X52512Y281779D01*
X52456Y281493D01*
X52289Y281240D01*
X52206Y281157D01*
X52206Y278843D01*
X55449Y275600D01*
X59975Y275600D01*
X60261Y275544D01*
X60513Y275377D01*
X61083Y274807D01*
X61246Y274566D01*
X61306Y274269D01*
X61306Y272986D01*
X61255Y272711D01*
X61091Y272456D01*
X60841Y272284D01*
X60544Y272224D01*
X57469Y272224D01*
X56576Y271331D01*
X56576Y264069D01*
X57469Y263176D01*
X66736Y263176D01*
X67000Y263129D01*
X67258Y262970D01*
X67433Y262722D01*
X67498Y262426D01*
X67443Y262128D01*
X67275Y261875D01*
X66259Y260859D01*
X66018Y260696D01*
X65720Y260636D01*
X63720Y260636D01*
X61293Y259631D01*
X51082Y249419D01*
X50840Y249256D01*
X50543Y249196D01*
X10922Y249196D01*
X10647Y249247D01*
X10392Y249411D01*
X10220Y249661D01*
X10160Y249958D01*
X10160Y251910D01*
X10211Y252185D01*
X10375Y252440D01*
X10625Y252612D01*
X10922Y252672D01*
X16280Y252672D01*
X16566Y252616D01*
X16819Y252449D01*
X17062Y252206D01*
X23563Y252206D01*
X23806Y252449D01*
X24048Y252612D01*
X24345Y252672D01*
X27582Y252672D01*
X30690Y255780D01*
X30690Y260176D01*
X27582Y263284D01*
X23186Y263284D01*
X22608Y262706D01*
X22378Y262548D01*
X22082Y262483D01*
X21784Y262539D01*
X21531Y262706D01*
X20530Y263707D01*
X10922Y263707D01*
X10647Y263758D01*
X10392Y263922D01*
X10220Y264172D01*
X10160Y264469D01*
X10160Y268214D01*
X10211Y268489D01*
X10375Y268744D01*
X10625Y268916D01*
X10922Y268976D01*
X20530Y268976D01*
X21423Y269869D01*
X21423Y270938D01*
X21474Y271212D01*
X21638Y271468D01*
X21888Y271639D01*
X22185Y271700D01*
X23275Y271700D01*
X23561Y271644D01*
X23814Y271476D01*
X25596Y269694D01*
X28833Y269694D01*
X29119Y269638D01*
X29372Y269471D01*
X31353Y267490D01*
X31516Y267248D01*
X31576Y266951D01*
X31576Y264069D01*
X32469Y263176D01*
X45731Y263176D01*
X46624Y264069D01*
X46624Y271331D01*
X46044Y271911D01*
X45886Y272142D01*
X45821Y272438D01*
X45877Y272736D01*
X46044Y272989D01*
X46624Y273569D01*
X46624Y280895D01*
X46605Y280923D01*
X46539Y281219D01*
X46595Y281518D01*
X46763Y281770D01*
X47640Y282648D01*
X47640Y285938D01*
X38338Y285938D01*
X38338Y292240D01*
X32048Y292240D01*
X30560Y290752D01*
X30560Y287871D01*
X30513Y287608D01*
X30354Y287350D01*
X30106Y287175D01*
X29810Y287110D01*
X29512Y287165D01*
X29259Y287333D01*
X27198Y289394D01*
X22802Y289394D01*
X19694Y286286D01*
X19694Y281890D01*
X20272Y281312D01*
X20425Y281092D01*
X20495Y280797D01*
X20444Y280498D01*
X20281Y280243D01*
X20031Y280071D01*
X19734Y280011D01*
X18586Y280011D01*
X18311Y280062D01*
X18055Y280226D01*
X17884Y280476D01*
X17824Y280773D01*
X17824Y333557D01*
X17879Y333843D01*
X18047Y334095D01*
X27255Y343304D01*
X27475Y343457D01*
X27770Y343527D01*
X28069Y343476D01*
X28324Y343312D01*
X28496Y343062D01*
X28556Y342765D01*
X28556Y324557D01*
X29948Y321196D01*
X32520Y318624D01*
X35881Y317232D01*
X39519Y317232D01*
X42880Y318624D01*
X45452Y321196D01*
X46844Y324557D01*
X46844Y343435D01*
X45452Y346796D01*
X43376Y348871D01*
X43223Y349091D01*
X43154Y349386D01*
X43204Y349685D01*
X43368Y349940D01*
X43618Y350112D01*
X43915Y350172D01*
X46323Y350172D01*
X54361Y358210D01*
X54592Y358368D01*
X54888Y358433D01*
X55186Y358377D01*
X55439Y358210D01*
X58020Y355628D01*
X61381Y354236D01*
X65019Y354236D01*
X68380Y355628D01*
X70952Y358200D01*
X72344Y361561D01*
X72344Y380439D01*
X70952Y383800D01*
X68380Y386372D01*
X65019Y387764D01*
X61381Y387764D01*
X58020Y386372D01*
X55448Y383800D01*
X54056Y380439D01*
X54056Y366123D01*
X54000Y365837D01*
X53833Y365584D01*
X49261Y361012D01*
X49041Y360859D01*
X48746Y360789D01*
X48447Y360840D01*
X48192Y361004D01*
X48020Y361254D01*
X47960Y361551D01*
X47960Y370238D01*
X27640Y370238D01*
X27640Y361359D01*
X29187Y357625D01*
X30891Y355920D01*
X31049Y355690D01*
X31114Y355394D01*
X31059Y355096D01*
X30891Y354843D01*
X12236Y336187D01*
X12236Y280773D01*
X12184Y280498D01*
X12021Y280243D01*
X11771Y280071D01*
X11474Y280011D01*
X10922Y280011D01*
X10647Y280062D01*
X10392Y280226D01*
X10220Y280476D01*
X10160Y280773D01*
X10160Y389078D01*
X10211Y389353D01*
X10375Y389608D01*
X10625Y389780D01*
X10922Y389840D01*
X34507Y389840D01*
X34765Y389795D01*
X35024Y389638D01*
X35202Y389392D01*
X35269Y389096D01*
X35216Y388798D01*
X35050Y388544D01*
X34799Y388374D01*
X32045Y387233D01*
X29187Y384375D01*
X27640Y380641D01*
X27640Y371762D01*
X47960Y371762D01*
X47960Y380641D01*
X46413Y384375D01*
X43555Y387233D01*
X40801Y388374D01*
X40580Y388514D01*
X40401Y388759D01*
X40331Y389054D01*
X40382Y389353D01*
X40545Y389608D01*
X40796Y389780D01*
X41093Y389840D01*
X359078Y389840D01*
X359353Y389789D01*
X359608Y389625D01*
X359780Y389375D01*
X359840Y389078D01*
X359840Y10922D01*
X359789Y10647D01*
X359625Y10392D01*
X359375Y10220D01*
X359078Y10160D01*
X355960Y10160D01*
X355685Y10211D01*
X355430Y10375D01*
X355258Y10625D01*
X355198Y10922D01*
X355198Y75307D01*
X354305Y76200D01*
X342366Y76200D01*
X342091Y76251D01*
X341836Y76415D01*
X341664Y76665D01*
X341604Y76962D01*
X341604Y91314D01*
X340599Y93741D01*
X338741Y95599D01*
X336314Y96604D01*
X333686Y96604D01*
X331259Y95599D01*
X329401Y93741D01*
X328396Y91314D01*
X328396Y76962D01*
X328345Y76687D01*
X328181Y76432D01*
X327931Y76260D01*
X327634Y76200D01*
X320531Y76200D01*
X319638Y75307D01*
X319638Y10922D01*
X319587Y10647D01*
X319423Y10392D01*
X319173Y10220D01*
X318876Y10160D01*
X301924Y10160D01*
X301649Y10211D01*
X301394Y10375D01*
X301222Y10625D01*
X301162Y10922D01*
X301162Y75307D01*
X300269Y76200D01*
X266495Y76200D01*
X265602Y75307D01*
X265602Y39411D01*
X265546Y39125D01*
X265379Y38872D01*
X255429Y28922D01*
X255188Y28759D01*
X254890Y28699D01*
X253527Y28699D01*
X252635Y27806D01*
X252635Y26394D01*
X252577Y26102D01*
X251548Y23619D01*
X251548Y20992D01*
X252577Y18509D01*
X252635Y18217D01*
X252635Y16805D01*
X253527Y15912D01*
X256179Y15912D01*
X256470Y15854D01*
X256838Y15702D01*
X259466Y15702D01*
X259834Y15854D01*
X260125Y15912D01*
X262777Y15912D01*
X263670Y16805D01*
X263670Y18168D01*
X263725Y18454D01*
X263893Y18707D01*
X264301Y19115D01*
X264521Y19268D01*
X264816Y19338D01*
X265115Y19287D01*
X265370Y19124D01*
X265542Y18874D01*
X265602Y18576D01*
X265602Y10922D01*
X265551Y10647D01*
X265387Y10392D01*
X265137Y10220D01*
X264840Y10160D01*
X203419Y10160D01*
X203144Y10211D01*
X202888Y10375D01*
X202717Y10625D01*
X202657Y10922D01*
X202657Y18778D01*
X201764Y19671D01*
X190762Y19671D01*
X189870Y18778D01*
X189870Y17710D01*
X189818Y17435D01*
X189655Y17179D01*
X189405Y17008D01*
X189108Y16948D01*
X178406Y16948D01*
X178131Y16999D01*
X177876Y17162D01*
X177704Y17412D01*
X177644Y17710D01*
X177644Y19643D01*
X177695Y19917D01*
X177859Y20173D01*
X178109Y20344D01*
X178406Y20405D01*
X181487Y20405D01*
X184595Y23513D01*
X184595Y27908D01*
X181487Y31017D01*
X178250Y31017D01*
X177964Y31072D01*
X177712Y31240D01*
X173017Y35934D01*
X172854Y36176D01*
X172794Y36473D01*
X172794Y53087D01*
X172841Y53350D01*
X173000Y53608D01*
X173248Y53783D01*
X173544Y53848D01*
X173842Y53793D01*
X174095Y53625D01*
X177276Y50444D01*
X178932Y50444D01*
X179207Y50393D01*
X179462Y50230D01*
X179634Y49979D01*
X179694Y49682D01*
X179694Y46226D01*
X182802Y43118D01*
X187198Y43118D01*
X190306Y46226D01*
X190306Y50622D01*
X189817Y51111D01*
X189654Y51352D01*
X189594Y51649D01*
X189594Y63514D01*
X189645Y63789D01*
X189809Y64044D01*
X190059Y64216D01*
X190356Y64276D01*
X190547Y64276D01*
X190788Y64329D01*
X191072Y64276D01*
X191244Y64276D01*
X191519Y64225D01*
X191774Y64061D01*
X191946Y63811D01*
X192006Y63514D01*
X192006Y43800D01*
X194471Y41335D01*
X194634Y41093D01*
X194694Y40796D01*
X194694Y37753D01*
X194643Y37478D01*
X194479Y37223D01*
X194229Y37051D01*
X193932Y36991D01*
X190341Y36991D01*
X188854Y35503D01*
X188854Y31220D01*
X203673Y31220D01*
X203673Y35610D01*
X203728Y35896D01*
X203896Y36149D01*
X205306Y37559D01*
X205306Y41955D01*
X202198Y45063D01*
X198961Y45063D01*
X198675Y45119D01*
X198422Y45286D01*
X197817Y45891D01*
X197654Y46133D01*
X197594Y46430D01*
X197594Y49439D01*
X197641Y49702D01*
X197800Y49960D01*
X198048Y50135D01*
X198344Y50200D01*
X198642Y50145D01*
X198895Y49977D01*
X199178Y49694D01*
X203574Y49694D01*
X204499Y50619D01*
X204719Y50772D01*
X205014Y50842D01*
X205313Y50791D01*
X205568Y50628D01*
X205740Y50378D01*
X205800Y50081D01*
X205800Y46226D01*
X208908Y43118D01*
X213304Y43118D01*
X216412Y46226D01*
X216412Y50622D01*
X213817Y53217D01*
X213654Y53458D01*
X213594Y53755D01*
X213594Y63514D01*
X213645Y63789D01*
X213809Y64044D01*
X214059Y64216D01*
X214356Y64276D01*
X214431Y64276D01*
X215324Y65169D01*
X215324Y81431D01*
X214431Y82324D01*
X207053Y82324D01*
X206812Y82271D01*
X206528Y82324D01*
X199053Y82324D01*
X198812Y82271D01*
X198528Y82324D01*
X191053Y82324D01*
X190812Y82271D01*
X190528Y82324D01*
X183053Y82324D01*
X182812Y82271D01*
X182528Y82324D01*
X175053Y82324D01*
X174812Y82271D01*
X174528Y82324D01*
X167053Y82324D01*
X166812Y82271D01*
X166528Y82324D01*
X159053Y82324D01*
X158812Y82271D01*
X158528Y82324D01*
X151169Y82324D01*
X150276Y81431D01*
X150276Y65169D01*
X151169Y64276D01*
X158547Y64276D01*
X158788Y64329D01*
X159072Y64276D01*
X166444Y64276D01*
X166719Y64225D01*
X166974Y64061D01*
X167146Y63811D01*
X167206Y63514D01*
X167206Y33843D01*
X172824Y28225D01*
X172977Y28005D01*
X173047Y27710D01*
X172996Y27411D01*
X172832Y27156D01*
X172582Y26984D01*
X172285Y26924D01*
X164712Y26924D01*
X159356Y21568D01*
X159356Y13992D01*
X161888Y11461D01*
X162041Y11241D01*
X162110Y10946D01*
X162060Y10647D01*
X161896Y10392D01*
X161646Y10220D01*
G37*
%LPC*%
G36*
X213781Y354236D02*
X217419Y354236D01*
X220780Y355628D01*
X223352Y358200D01*
X224744Y361561D01*
X224744Y367444D01*
X224795Y367719D01*
X224959Y367974D01*
X225209Y368146D01*
X225506Y368206D01*
X231094Y368206D01*
X231369Y368155D01*
X231624Y367991D01*
X231796Y367741D01*
X231856Y367444D01*
X231856Y361561D01*
X233248Y358200D01*
X235820Y355628D01*
X239181Y354236D01*
X242819Y354236D01*
X246180Y355628D01*
X248752Y358200D01*
X250144Y361561D01*
X250144Y367444D01*
X250195Y367719D01*
X250359Y367974D01*
X250609Y368146D01*
X250906Y368206D01*
X256494Y368206D01*
X256769Y368155D01*
X257024Y367991D01*
X257196Y367741D01*
X257256Y367444D01*
X257256Y361561D01*
X258648Y358200D01*
X261220Y355628D01*
X264581Y354236D01*
X268219Y354236D01*
X271580Y355628D01*
X274152Y358200D01*
X275544Y361561D01*
X275544Y380439D01*
X274152Y383800D01*
X271580Y386372D01*
X268219Y387764D01*
X264581Y387764D01*
X261220Y386372D01*
X258648Y383800D01*
X257256Y380439D01*
X257256Y374556D01*
X257205Y374281D01*
X257041Y374026D01*
X256791Y373854D01*
X256494Y373794D01*
X250906Y373794D01*
X250631Y373845D01*
X250376Y374009D01*
X250204Y374259D01*
X250144Y374556D01*
X250144Y380439D01*
X248752Y383800D01*
X246180Y386372D01*
X242819Y387764D01*
X239181Y387764D01*
X235820Y386372D01*
X233248Y383800D01*
X231856Y380439D01*
X231856Y374556D01*
X231805Y374281D01*
X231641Y374026D01*
X231391Y373854D01*
X231094Y373794D01*
X225506Y373794D01*
X225231Y373845D01*
X224976Y374009D01*
X224804Y374259D01*
X224744Y374556D01*
X224744Y380439D01*
X223352Y383800D01*
X220780Y386372D01*
X217419Y387764D01*
X213781Y387764D01*
X210420Y386372D01*
X207848Y383800D01*
X206456Y380439D01*
X206456Y361561D01*
X207848Y358200D01*
X210420Y355628D01*
X213781Y354236D01*
G37*
G36*
X340781Y354236D02*
X344419Y354236D01*
X347780Y355628D01*
X350352Y358200D01*
X351744Y361561D01*
X351744Y380439D01*
X350352Y383800D01*
X347780Y386372D01*
X344419Y387764D01*
X340781Y387764D01*
X337420Y386372D01*
X334848Y383800D01*
X333456Y380439D01*
X333456Y361561D01*
X334848Y358200D01*
X337420Y355628D01*
X340781Y354236D01*
G37*
G36*
X315381Y354236D02*
X319019Y354236D01*
X322380Y355628D01*
X324952Y358200D01*
X326344Y361561D01*
X326344Y380439D01*
X324952Y383800D01*
X322380Y386372D01*
X319019Y387764D01*
X315381Y387764D01*
X312020Y386372D01*
X309448Y383800D01*
X308056Y380439D01*
X308056Y361561D01*
X309448Y358200D01*
X312020Y355628D01*
X315381Y354236D01*
G37*
G36*
X289981Y354236D02*
X293619Y354236D01*
X296980Y355628D01*
X299552Y358200D01*
X300944Y361561D01*
X300944Y380439D01*
X299552Y383800D01*
X296980Y386372D01*
X293619Y387764D01*
X289981Y387764D01*
X286620Y386372D01*
X284048Y383800D01*
X282656Y380439D01*
X282656Y361561D01*
X284048Y358200D01*
X286620Y355628D01*
X289981Y354236D01*
G37*
G36*
X124952Y307544D02*
X129348Y307544D01*
X132456Y310652D01*
X132456Y315048D01*
X129348Y318156D01*
X124952Y318156D01*
X124813Y318017D01*
X124572Y317854D01*
X124275Y317794D01*
X121473Y317794D01*
X121187Y317850D01*
X120934Y318017D01*
X120242Y318709D01*
X120084Y318940D01*
X120019Y319236D01*
X120075Y319534D01*
X120242Y319787D01*
X121652Y321196D01*
X123044Y324557D01*
X123044Y343435D01*
X121652Y346796D01*
X119080Y349368D01*
X117164Y350161D01*
X116926Y350318D01*
X116754Y350568D01*
X116694Y350865D01*
X116694Y354089D01*
X116747Y354370D01*
X116913Y354624D01*
X117164Y354793D01*
X119180Y355628D01*
X121752Y358200D01*
X123144Y361561D01*
X123144Y380439D01*
X121752Y383800D01*
X119180Y386372D01*
X115819Y387764D01*
X112181Y387764D01*
X108820Y386372D01*
X106248Y383800D01*
X104856Y380439D01*
X104856Y361561D01*
X106248Y358200D01*
X108820Y355628D01*
X110636Y354876D01*
X110874Y354720D01*
X111046Y354469D01*
X111106Y354172D01*
X111106Y350865D01*
X111053Y350585D01*
X110887Y350331D01*
X110636Y350161D01*
X108720Y349368D01*
X106148Y346796D01*
X104756Y343435D01*
X104756Y324557D01*
X106148Y321196D01*
X108720Y318624D01*
X112081Y317232D01*
X113501Y317232D01*
X113787Y317176D01*
X114040Y317009D01*
X118843Y312206D01*
X121082Y312206D01*
X121357Y312155D01*
X121612Y311991D01*
X121784Y311741D01*
X121844Y311444D01*
X121844Y310652D01*
X124952Y307544D01*
G37*
G36*
X289881Y317232D02*
X293519Y317232D01*
X296880Y318624D01*
X299452Y321196D01*
X300844Y324557D01*
X300844Y343435D01*
X299452Y346796D01*
X296880Y349368D01*
X293519Y350760D01*
X289881Y350760D01*
X286520Y349368D01*
X283948Y346796D01*
X282556Y343435D01*
X282556Y324557D01*
X283948Y321196D01*
X286520Y318624D01*
X289881Y317232D01*
G37*
G36*
X315281Y317232D02*
X318919Y317232D01*
X322280Y318624D01*
X324852Y321196D01*
X326244Y324557D01*
X326244Y343435D01*
X324852Y346796D01*
X322280Y349368D01*
X318919Y350760D01*
X315281Y350760D01*
X311920Y349368D01*
X309348Y346796D01*
X307956Y343435D01*
X307956Y324557D01*
X309348Y321196D01*
X311920Y318624D01*
X315281Y317232D01*
G37*
G36*
X264481Y317232D02*
X268119Y317232D01*
X271480Y318624D01*
X274052Y321196D01*
X275444Y324557D01*
X275444Y343435D01*
X274052Y346796D01*
X271480Y349368D01*
X268119Y350760D01*
X264481Y350760D01*
X261120Y349368D01*
X258548Y346796D01*
X257156Y343435D01*
X257156Y324557D01*
X258548Y321196D01*
X261120Y318624D01*
X264481Y317232D01*
G37*
G36*
X340681Y317232D02*
X344319Y317232D01*
X347680Y318624D01*
X350252Y321196D01*
X351644Y324557D01*
X351644Y343435D01*
X350252Y346796D01*
X347680Y349368D01*
X344319Y350760D01*
X340681Y350760D01*
X337320Y349368D01*
X334748Y346796D01*
X333356Y343435D01*
X333356Y324557D01*
X334748Y321196D01*
X337320Y318624D01*
X340681Y317232D01*
G37*
G36*
X239081Y317232D02*
X242719Y317232D01*
X246080Y318624D01*
X248652Y321196D01*
X250044Y324557D01*
X250044Y343435D01*
X248652Y346796D01*
X246080Y349368D01*
X242719Y350760D01*
X239081Y350760D01*
X235720Y349368D01*
X233148Y346796D01*
X231756Y343435D01*
X231756Y324557D01*
X233148Y321196D01*
X235720Y318624D01*
X239081Y317232D01*
G37*
G36*
X338799Y294865D02*
X349801Y294865D01*
X350694Y295758D01*
X350694Y303932D01*
X350745Y304207D01*
X350908Y304462D01*
X351158Y304634D01*
X351456Y304694D01*
X353256Y304694D01*
X356364Y307802D01*
X356364Y312198D01*
X353256Y315306D01*
X348860Y315306D01*
X345752Y312198D01*
X345752Y308961D01*
X345696Y308675D01*
X345529Y308422D01*
X343230Y306123D01*
X342988Y305960D01*
X342691Y305900D01*
X338799Y305900D01*
X337907Y305007D01*
X337907Y295758D01*
X338799Y294865D01*
G37*
G36*
X39862Y287462D02*
X47640Y287462D01*
X47640Y290752D01*
X46152Y292240D01*
X39862Y292240D01*
X39862Y287462D01*
G37*
G36*
X64862Y287462D02*
X72640Y287462D01*
X72640Y290752D01*
X71152Y292240D01*
X64862Y292240D01*
X64862Y287462D01*
G37*
G36*
X337802Y264694D02*
X342198Y264694D01*
X345306Y267802D01*
X345306Y272198D01*
X343017Y274487D01*
X342854Y274728D01*
X342794Y275025D01*
X342794Y277799D01*
X342845Y278074D01*
X343009Y278329D01*
X343259Y278501D01*
X343556Y278561D01*
X349801Y278561D01*
X350694Y279454D01*
X350694Y288703D01*
X349801Y289596D01*
X338799Y289596D01*
X337907Y288703D01*
X337907Y287635D01*
X337855Y287360D01*
X337692Y287104D01*
X337442Y286933D01*
X337145Y286873D01*
X335193Y286873D01*
X334918Y286924D01*
X334662Y287087D01*
X334491Y287337D01*
X334457Y287505D01*
X333538Y288424D01*
X320275Y288424D01*
X319383Y287531D01*
X319383Y279961D01*
X319336Y279698D01*
X319176Y279440D01*
X318929Y279264D01*
X318633Y279199D01*
X318335Y279255D01*
X318082Y279422D01*
X317198Y280306D01*
X312802Y280306D01*
X309694Y277198D01*
X309694Y272802D01*
X312802Y269694D01*
X317255Y269694D01*
X317285Y269715D01*
X317580Y269785D01*
X317879Y269734D01*
X318135Y269570D01*
X318306Y269320D01*
X318367Y269023D01*
X318367Y265662D01*
X335610Y265662D01*
X335653Y265731D01*
X335900Y265907D01*
X336196Y265972D01*
X336494Y265916D01*
X336747Y265749D01*
X337802Y264694D01*
G37*
G36*
X302669Y265662D02*
X310447Y265662D01*
X310447Y268952D01*
X308959Y270440D01*
X302669Y270440D01*
X302669Y265662D01*
G37*
G36*
X302669Y259360D02*
X308959Y259360D01*
X310447Y260848D01*
X310447Y264138D01*
X302669Y264138D01*
X302669Y259360D01*
G37*
G36*
X319854Y259360D02*
X326145Y259360D01*
X326145Y264138D01*
X318367Y264138D01*
X318367Y260848D01*
X319854Y259360D01*
G37*
G36*
X327669Y259360D02*
X333959Y259360D01*
X335447Y260848D01*
X335447Y264138D01*
X327669Y264138D01*
X327669Y259360D01*
G37*
G36*
X327802Y199694D02*
X332198Y199694D01*
X335315Y202811D01*
X335557Y202974D01*
X335854Y203035D01*
X346701Y203035D01*
X347594Y203927D01*
X347594Y213177D01*
X346701Y214070D01*
X335699Y214070D01*
X334807Y213177D01*
X334807Y212108D01*
X334755Y211833D01*
X334592Y211578D01*
X334342Y211406D01*
X334045Y211346D01*
X332395Y211346D01*
X331578Y210529D01*
X331336Y210366D01*
X331039Y210306D01*
X327802Y210306D01*
X324694Y207198D01*
X324694Y202802D01*
X327802Y199694D01*
G37*
G36*
X25760Y188662D02*
X33538Y188662D01*
X33538Y193440D01*
X27248Y193440D01*
X25760Y191952D01*
X25760Y188662D01*
G37*
G36*
X50760Y188662D02*
X58538Y188662D01*
X58538Y193440D01*
X52248Y193440D01*
X50760Y191952D01*
X50760Y188662D01*
G37*
G36*
X60062Y188662D02*
X67840Y188662D01*
X67840Y191952D01*
X66352Y193440D01*
X60062Y193440D01*
X60062Y188662D01*
G37*
G36*
X35062Y188662D02*
X42840Y188662D01*
X42840Y191952D01*
X41352Y193440D01*
X35062Y193440D01*
X35062Y188662D01*
G37*
G36*
X60062Y182360D02*
X66352Y182360D01*
X67840Y183848D01*
X67840Y187138D01*
X60062Y187138D01*
X60062Y182360D01*
G37*
G36*
X52248Y182360D02*
X58538Y182360D01*
X58538Y187138D01*
X50760Y187138D01*
X50760Y183848D01*
X52248Y182360D01*
G37*
G36*
X294602Y163936D02*
X300892Y163936D01*
X302380Y165424D01*
X302380Y168714D01*
X294602Y168714D01*
X294602Y163936D01*
G37*
G36*
X319602Y163936D02*
X325892Y163936D01*
X327380Y165424D01*
X327380Y168714D01*
X319602Y168714D01*
X319602Y163936D01*
G37*
G36*
X311788Y163936D02*
X318078Y163936D01*
X318078Y168714D01*
X310300Y168714D01*
X310300Y165424D01*
X311788Y163936D01*
G37*
G36*
X151169Y149276D02*
X158547Y149276D01*
X158788Y149329D01*
X159072Y149276D01*
X166547Y149276D01*
X166788Y149329D01*
X167072Y149276D01*
X174547Y149276D01*
X174788Y149329D01*
X175072Y149276D01*
X182547Y149276D01*
X182788Y149329D01*
X183072Y149276D01*
X190547Y149276D01*
X190788Y149329D01*
X191072Y149276D01*
X198547Y149276D01*
X198788Y149329D01*
X199072Y149276D01*
X206547Y149276D01*
X206788Y149329D01*
X207072Y149276D01*
X214431Y149276D01*
X215324Y150169D01*
X215324Y166431D01*
X214431Y167324D01*
X207053Y167324D01*
X206812Y167271D01*
X206528Y167324D01*
X199053Y167324D01*
X198812Y167271D01*
X198528Y167324D01*
X191053Y167324D01*
X190812Y167271D01*
X190528Y167324D01*
X183053Y167324D01*
X182812Y167271D01*
X182528Y167324D01*
X175053Y167324D01*
X174812Y167271D01*
X174528Y167324D01*
X167053Y167324D01*
X166812Y167271D01*
X166528Y167324D01*
X159053Y167324D01*
X158812Y167271D01*
X158528Y167324D01*
X151169Y167324D01*
X150276Y166431D01*
X150276Y150169D01*
X151169Y149276D01*
G37*
G36*
X47306Y115236D02*
X54882Y115236D01*
X60238Y120592D01*
X60238Y128168D01*
X54882Y133524D01*
X47306Y133524D01*
X41950Y128168D01*
X41950Y120592D01*
X47306Y115236D01*
G37*
G36*
X260810Y98225D02*
X271282Y98225D01*
X272175Y99118D01*
X272175Y99942D01*
X272221Y100206D01*
X272381Y100464D01*
X272628Y100639D01*
X272924Y100704D01*
X273222Y100649D01*
X273475Y100481D01*
X274262Y99694D01*
X278658Y99694D01*
X281766Y102802D01*
X281766Y107198D01*
X278658Y110306D01*
X274262Y110306D01*
X273475Y109519D01*
X273256Y109366D01*
X272961Y109296D01*
X272662Y109347D01*
X272406Y109510D01*
X272235Y109760D01*
X272175Y110058D01*
X272175Y110082D01*
X271282Y110975D01*
X260810Y110975D01*
X259918Y110082D01*
X259918Y99118D01*
X260810Y98225D01*
G37*
G36*
X291610Y83225D02*
X302082Y83225D01*
X302975Y84118D01*
X302975Y95103D01*
X302854Y95281D01*
X302794Y95578D01*
X302794Y99975D01*
X302850Y100261D01*
X303017Y100513D01*
X305306Y102802D01*
X305306Y107198D01*
X302198Y110306D01*
X297802Y110306D01*
X294694Y107198D01*
X294694Y102802D01*
X296983Y100513D01*
X297146Y100272D01*
X297206Y99975D01*
X297206Y96737D01*
X297155Y96462D01*
X296991Y96207D01*
X296741Y96035D01*
X296444Y95975D01*
X291610Y95975D01*
X290718Y95082D01*
X290718Y84118D01*
X291610Y83225D01*
G37*
G36*
X21906Y89836D02*
X29482Y89836D01*
X34838Y95192D01*
X34838Y102768D01*
X29482Y108124D01*
X21906Y108124D01*
X16550Y102768D01*
X16550Y95192D01*
X21906Y89836D01*
G37*
G36*
X47306Y89836D02*
X54882Y89836D01*
X60238Y95192D01*
X60238Y102768D01*
X54882Y108124D01*
X47306Y108124D01*
X41950Y102768D01*
X41950Y95192D01*
X47306Y89836D01*
G37*
G36*
X21906Y13636D02*
X29482Y13636D01*
X34838Y18992D01*
X34838Y26568D01*
X34674Y26731D01*
X34516Y26962D01*
X34451Y27258D01*
X34507Y27556D01*
X34674Y27809D01*
X37042Y30177D01*
X37284Y30340D01*
X37581Y30400D01*
X42506Y30400D01*
X42769Y30353D01*
X43027Y30194D01*
X43203Y29946D01*
X43268Y29650D01*
X43212Y29352D01*
X43045Y29099D01*
X40934Y26988D01*
X40934Y23542D01*
X61254Y23542D01*
X61254Y26988D01*
X55457Y32786D01*
X55299Y33016D01*
X55233Y33313D01*
X55289Y33611D01*
X55457Y33864D01*
X64302Y42709D01*
X64302Y60035D01*
X64358Y60321D01*
X64525Y60574D01*
X80126Y76174D01*
X80367Y76337D01*
X80664Y76398D01*
X114649Y76398D01*
X115234Y76983D01*
X115476Y77146D01*
X115773Y77206D01*
X133657Y77206D01*
X139504Y83053D01*
X139746Y83216D01*
X140043Y83276D01*
X148431Y83276D01*
X149324Y84169D01*
X149324Y91547D01*
X149271Y91788D01*
X149324Y92072D01*
X149324Y98416D01*
X149380Y98702D01*
X149547Y98955D01*
X150340Y99748D01*
X150340Y103038D01*
X130260Y103038D01*
X130260Y99684D01*
X130266Y99675D01*
X130336Y99380D01*
X130285Y99081D01*
X130122Y98826D01*
X129872Y98654D01*
X129574Y98594D01*
X123196Y98594D01*
X114492Y89890D01*
X114272Y89737D01*
X113977Y89668D01*
X113678Y89718D01*
X113423Y89882D01*
X113251Y90132D01*
X113191Y90429D01*
X113191Y94892D01*
X106562Y94892D01*
X106562Y88510D01*
X111271Y88510D01*
X111535Y88463D01*
X111793Y88303D01*
X111968Y88056D01*
X112033Y87760D01*
X111978Y87462D01*
X111810Y87209D01*
X110874Y86273D01*
X110633Y86110D01*
X110335Y86050D01*
X95453Y86050D01*
X95178Y86101D01*
X94923Y86264D01*
X94751Y86514D01*
X94691Y86812D01*
X94691Y91167D01*
X79909Y91167D01*
X79909Y86812D01*
X79858Y86537D01*
X79694Y86281D01*
X79444Y86110D01*
X79147Y86050D01*
X74340Y86050D01*
X61539Y73249D01*
X61319Y73096D01*
X61024Y73026D01*
X60725Y73077D01*
X60470Y73240D01*
X60298Y73490D01*
X60238Y73787D01*
X60238Y77368D01*
X54882Y82724D01*
X47306Y82724D01*
X41950Y77368D01*
X41950Y69792D01*
X47306Y64436D01*
X50887Y64436D01*
X51150Y64389D01*
X51408Y64230D01*
X51584Y63982D01*
X51649Y63686D01*
X51593Y63388D01*
X51426Y63135D01*
X49902Y61611D01*
X49660Y61448D01*
X49363Y61388D01*
X34951Y61388D01*
X30723Y57160D01*
X30492Y57002D01*
X30196Y56937D01*
X29898Y56993D01*
X29645Y57160D01*
X29482Y57324D01*
X21906Y57324D01*
X16550Y51968D01*
X16550Y44392D01*
X21906Y39036D01*
X29482Y39036D01*
X34838Y44392D01*
X34838Y51968D01*
X34674Y52131D01*
X34516Y52362D01*
X34451Y52658D01*
X34507Y52956D01*
X34674Y53209D01*
X37042Y55577D01*
X37284Y55740D01*
X37581Y55800D01*
X43943Y55800D01*
X44206Y55753D01*
X44464Y55594D01*
X44640Y55346D01*
X44705Y55050D01*
X44649Y54752D01*
X44482Y54499D01*
X41950Y51968D01*
X41950Y44392D01*
X47306Y39036D01*
X50887Y39036D01*
X51150Y38989D01*
X51408Y38830D01*
X51584Y38582D01*
X51649Y38286D01*
X51593Y37988D01*
X51426Y37735D01*
X49902Y36211D01*
X49660Y36048D01*
X49363Y35988D01*
X34951Y35988D01*
X30723Y31760D01*
X30492Y31602D01*
X30196Y31537D01*
X29898Y31593D01*
X29645Y31760D01*
X29482Y31924D01*
X21906Y31924D01*
X16550Y26568D01*
X16550Y18992D01*
X21906Y13636D01*
G37*
G36*
X106562Y96416D02*
X113191Y96416D01*
X113191Y101311D01*
X111703Y102799D01*
X106562Y102799D01*
X106562Y96416D01*
G37*
G36*
X98409Y96416D02*
X105038Y96416D01*
X105038Y102799D01*
X99897Y102799D01*
X98409Y101311D01*
X98409Y96416D01*
G37*
G36*
X88062Y92691D02*
X94691Y92691D01*
X94691Y97585D01*
X93203Y99073D01*
X88062Y99073D01*
X88062Y92691D01*
G37*
G36*
X79909Y92691D02*
X86538Y92691D01*
X86538Y99073D01*
X81397Y99073D01*
X79909Y97585D01*
X79909Y92691D01*
G37*
G36*
X268113Y81509D02*
X272903Y81509D01*
X274111Y82717D01*
X274342Y82875D01*
X274638Y82940D01*
X274936Y82885D01*
X275189Y82717D01*
X275697Y82209D01*
X280592Y82209D01*
X280592Y96991D01*
X275697Y96991D01*
X274489Y95783D01*
X274259Y95625D01*
X273962Y95560D01*
X273664Y95615D01*
X273411Y95783D01*
X272903Y96291D01*
X268113Y96291D01*
X268113Y81509D01*
G37*
G36*
X282116Y90362D02*
X288499Y90362D01*
X288499Y95503D01*
X287011Y96991D01*
X282116Y96991D01*
X282116Y90362D01*
G37*
G36*
X260311Y89662D02*
X266589Y89662D01*
X266589Y96291D01*
X261799Y96291D01*
X260311Y94803D01*
X260311Y89662D01*
G37*
G36*
X99897Y88510D02*
X105038Y88510D01*
X105038Y94892D01*
X98409Y94892D01*
X98409Y89997D01*
X99897Y88510D01*
G37*
G36*
X282116Y82209D02*
X287011Y82209D01*
X288499Y83697D01*
X288499Y88838D01*
X282116Y88838D01*
X282116Y82209D01*
G37*
G36*
X261799Y81509D02*
X266589Y81509D01*
X266589Y88138D01*
X260311Y88138D01*
X260311Y82997D01*
X261799Y81509D01*
G37*
G36*
X21906Y64436D02*
X29482Y64436D01*
X34838Y69792D01*
X34838Y77368D01*
X29482Y82724D01*
X21906Y82724D01*
X16550Y77368D01*
X16550Y69792D01*
X21906Y64436D01*
G37*
G36*
X224360Y36362D02*
X228238Y36362D01*
X228238Y41340D01*
X225848Y41340D01*
X224360Y39852D01*
X224360Y36362D01*
G37*
G36*
X229762Y36362D02*
X233640Y36362D01*
X233640Y39852D01*
X232152Y41340D01*
X229762Y41340D01*
X229762Y36362D01*
G37*
G36*
X227686Y13996D02*
X230314Y13996D01*
X232741Y15001D01*
X233218Y15478D01*
X233459Y15641D01*
X233757Y15702D01*
X243162Y15702D01*
X243530Y15854D01*
X243821Y15912D01*
X246473Y15912D01*
X247366Y16805D01*
X247366Y18217D01*
X247424Y18509D01*
X248452Y20992D01*
X248452Y23619D01*
X247424Y26102D01*
X247366Y26394D01*
X247366Y27806D01*
X246473Y28699D01*
X243821Y28699D01*
X243530Y28757D01*
X243162Y28910D01*
X233041Y28910D01*
X232778Y28956D01*
X232520Y29116D01*
X232344Y29363D01*
X232279Y29659D01*
X232335Y29957D01*
X232502Y30210D01*
X233640Y31348D01*
X233640Y34838D01*
X224360Y34838D01*
X224360Y31348D01*
X225848Y29860D01*
X227856Y29860D01*
X228113Y29815D01*
X228373Y29658D01*
X228550Y29412D01*
X228618Y29116D01*
X228564Y28818D01*
X228399Y28564D01*
X228147Y28394D01*
X226965Y27904D01*
X223401Y24341D01*
X222396Y21914D01*
X222396Y19286D01*
X223401Y16859D01*
X225259Y15001D01*
X227686Y13996D01*
G37*
G36*
X197025Y23924D02*
X202185Y23924D01*
X203673Y25412D01*
X203673Y29696D01*
X197025Y29696D01*
X197025Y23924D01*
G37*
G36*
X190341Y23924D02*
X195501Y23924D01*
X195501Y29696D01*
X188854Y29696D01*
X188854Y25412D01*
X190341Y23924D01*
G37*
G36*
X51856Y12620D02*
X55302Y12620D01*
X61254Y18572D01*
X61254Y22018D01*
X51856Y22018D01*
X51856Y12620D01*
G37*
G36*
X46886Y12620D02*
X50332Y12620D01*
X50332Y22018D01*
X40934Y22018D01*
X40934Y18572D01*
X46886Y12620D01*
G37*
%LPD*%
D10*
X281354Y89600D03*
X296846Y89600D03*
X250554Y104600D03*
X266046Y104600D03*
D11*
X105800Y95654D03*
X105800Y111146D03*
X87300Y91929D03*
X87300Y107421D03*
X110200Y126854D03*
X110200Y142346D03*
X84900Y126854D03*
X84900Y142346D03*
D12*
X283382Y42418D03*
X337418Y42418D03*
D13*
X42418Y231416D03*
X322582Y236416D03*
D14*
X229000Y35600D03*
X229000Y20600D03*
D15*
X39100Y286700D03*
X39100Y277200D03*
X39100Y267700D03*
X64100Y267700D03*
X64100Y286700D03*
X34300Y187900D03*
X34300Y178400D03*
X34300Y168900D03*
X59300Y168900D03*
X59300Y187900D03*
X318840Y169476D03*
X318840Y178976D03*
X318840Y188476D03*
X293840Y188476D03*
X293840Y169476D03*
X326907Y264900D03*
X326907Y274400D03*
X326907Y283900D03*
X301907Y283900D03*
X301907Y264900D03*
D16*
X154800Y73300D03*
X162800Y73300D03*
X170800Y73300D03*
X178800Y73300D03*
X186800Y73300D03*
X194800Y73300D03*
X202800Y73300D03*
X210800Y73300D03*
D17*
X225300Y87800D03*
X225300Y95800D03*
X225300Y103800D03*
X225300Y111800D03*
X225300Y119800D03*
X225300Y127800D03*
X225300Y135800D03*
X225300Y143800D03*
D16*
X210800Y158300D03*
X202800Y158300D03*
X194800Y158300D03*
X186800Y158300D03*
X178800Y158300D03*
X170800Y158300D03*
X162800Y158300D03*
X154800Y158300D03*
D17*
X140300Y143800D03*
X140300Y135800D03*
X140300Y127800D03*
X140300Y119800D03*
X140300Y111800D03*
X140300Y103800D03*
X140300Y95800D03*
X140300Y87800D03*
D18*
X168500Y17780D03*
D19*
X51094Y22780D03*
X25694Y22780D03*
X51094Y48180D03*
X25694Y48180D03*
X51094Y73580D03*
X25694Y73580D03*
X51094Y98980D03*
X25694Y98980D03*
X51094Y124380D03*
X25694Y124380D03*
D18*
X144200Y291000D03*
X209100Y292200D03*
D20*
X37700Y326376D02*
X37700Y341616D01*
X63100Y341616D02*
X63100Y326376D01*
X88500Y326376D02*
X88500Y341616D01*
X113900Y341616D02*
X113900Y326376D01*
X139300Y326376D02*
X139300Y341616D01*
X164700Y341616D02*
X164700Y326376D01*
X190100Y326376D02*
X190100Y341616D01*
X215500Y341616D02*
X215500Y326376D01*
X240900Y326376D02*
X240900Y341616D01*
X266300Y341616D02*
X266300Y326376D01*
X291700Y326376D02*
X291700Y341616D01*
X317100Y341616D02*
X317100Y326376D01*
X342500Y326376D02*
X342500Y341616D01*
X37800Y363380D02*
X37800Y378620D01*
X63200Y378620D02*
X63200Y363380D01*
X88600Y363380D02*
X88600Y378620D01*
X114000Y378620D02*
X114000Y363380D01*
X139400Y363380D02*
X139400Y378620D01*
X164800Y378620D02*
X164800Y363380D01*
X190200Y363380D02*
X190200Y378620D01*
X215600Y378620D02*
X215600Y363380D01*
X241000Y363380D02*
X241000Y378620D01*
X266400Y378620D02*
X266400Y363380D01*
X291800Y363380D02*
X291800Y378620D01*
X317200Y378620D02*
X317200Y363380D01*
X342600Y363380D02*
X342600Y378620D01*
D21*
X208200Y239200D03*
X147200Y239200D03*
D22*
X267351Y88900D03*
D23*
X251812Y88900D03*
D24*
X89350Y266500D03*
X95850Y266500D03*
X102350Y266500D03*
X108850Y266500D03*
D25*
X108850Y295750D03*
X102350Y295750D03*
X95850Y295750D03*
X89350Y295750D03*
D26*
X99100Y285000D03*
D24*
X91550Y176500D03*
X98050Y176500D03*
X104550Y176500D03*
X111050Y176500D03*
D25*
X111050Y205750D03*
X104550Y205750D03*
X98050Y205750D03*
X91550Y205750D03*
D26*
X101300Y195000D03*
D24*
X243750Y176500D03*
X250250Y176500D03*
X256750Y176500D03*
X263250Y176500D03*
D25*
X263250Y205750D03*
X256750Y205750D03*
X250250Y205750D03*
X243750Y205750D03*
D26*
X253500Y195000D03*
D24*
X244350Y268100D03*
X250850Y268100D03*
X257350Y268100D03*
X263850Y268100D03*
D25*
X263850Y297350D03*
X257350Y297350D03*
X250850Y297350D03*
X244350Y297350D03*
D26*
X254100Y286600D03*
D27*
X15030Y274494D03*
X15030Y258190D03*
X344300Y284079D03*
X344300Y300383D03*
X341200Y192248D03*
X341200Y208552D03*
X15030Y168772D03*
X15030Y152468D03*
D28*
X258152Y22306D03*
X241848Y22306D03*
X168748Y290400D03*
X185052Y290400D03*
D27*
X196263Y14154D03*
X196263Y30458D03*
D29*
X68925Y137851D03*
D30*
X68925Y122312D03*
D31*
X263850Y297350D02*
X272650Y297350D01*
D32*
X263850Y297350D02*
X257350Y297350D01*
X250850Y297350D01*
X244350Y297350D01*
X257350Y297350D02*
X257350Y289850D01*
X254100Y286600D01*
D31*
X307051Y236416D02*
X322582Y236416D01*
D32*
X286416Y236416D01*
X285000Y235000D01*
D33*
X285000Y235000D03*
D32*
X215500Y326200D02*
X215500Y333996D01*
X215500Y326200D02*
X244350Y297350D01*
X215500Y333996D02*
X190100Y333996D01*
X190200Y334096D02*
X190200Y371000D01*
X190200Y334096D02*
X190100Y333996D01*
D31*
X281642Y261825D02*
X307051Y236416D01*
X281642Y288358D02*
X272650Y297350D01*
X281642Y288358D02*
X281642Y261825D01*
D33*
X179289Y25711D03*
D32*
X170000Y35000D01*
X170000Y72500D01*
X170800Y73300D01*
X108850Y295750D02*
X102350Y295750D01*
X95850Y295750D01*
X89350Y295750D01*
X95850Y295750D02*
X99100Y292500D01*
X99100Y285000D01*
D31*
X90000Y290000D02*
X76704Y276704D01*
X76704Y261965D01*
X65034Y254032D02*
X42418Y231416D01*
X65034Y254032D02*
X68771Y254032D01*
X76704Y261965D01*
D32*
X99100Y285000D02*
X89350Y294750D01*
X89350Y295750D01*
X108850Y295750D02*
X110000Y296900D01*
X110000Y305000D01*
X215600Y371000D02*
X241000Y371000D01*
X266400Y371000D01*
D33*
X112150Y307150D03*
D32*
X110000Y305000D01*
X90000Y295100D02*
X89350Y295750D01*
X90000Y295100D02*
X90000Y290000D01*
X178800Y73300D02*
X178800Y53984D01*
D33*
X179474Y55750D03*
D32*
X179474Y54658D02*
X178800Y53984D01*
X179474Y54658D02*
X179474Y55750D01*
D33*
X74735Y260865D03*
D32*
X75604Y260865D02*
X76704Y261965D01*
X75604Y260865D02*
X74735Y260865D01*
D33*
X65000Y278394D03*
D32*
X64100Y277494D02*
X64100Y267700D01*
X64100Y277494D02*
X65000Y278394D01*
X55306Y280306D02*
X55000Y280000D01*
X55306Y290857D02*
X63100Y298651D01*
X55306Y290857D02*
X55306Y280306D01*
X55000Y280000D02*
X56606Y278394D01*
X65000Y278394D01*
D33*
X118210Y271470D03*
D32*
X113240Y266500D02*
X108850Y266500D01*
X113240Y266500D02*
X118210Y271470D01*
X63100Y298651D02*
X63100Y333996D01*
X300000Y105000D02*
X300000Y92754D01*
X296846Y89600D01*
D33*
X300000Y105000D03*
D32*
X100000Y140000D02*
X97654Y142346D01*
X84900Y142346D01*
D33*
X100000Y140000D03*
D32*
X100200Y142346D02*
X110200Y142346D01*
X100200Y142346D02*
X100000Y142146D01*
X100000Y140000D01*
X243750Y176500D02*
X250250Y176500D01*
X256750Y176500D01*
D33*
X100000Y160000D03*
D31*
X100000Y174550D01*
D32*
X34300Y178400D02*
X21600Y178400D01*
D33*
X19532Y180636D03*
D32*
X19532Y180468D02*
X21600Y178400D01*
X19532Y180468D02*
X19532Y180636D01*
D33*
X276460Y105000D03*
D32*
X276060Y104600D01*
X266046Y104600D01*
X333552Y208552D02*
X341200Y208552D01*
X333552Y208552D02*
X330000Y205000D01*
D33*
X330000Y205000D03*
D32*
X319864Y180000D02*
X318840Y178976D01*
X319864Y180000D02*
X335000Y180000D01*
D33*
X335000Y180000D03*
D32*
X18219Y255000D02*
X15030Y258190D01*
X91550Y176500D02*
X98050Y176500D01*
X100000Y174550D01*
X98050Y176500D02*
X104550Y176500D01*
X22532Y152468D02*
X15030Y152468D01*
X22532Y152468D02*
X30000Y145000D01*
D33*
X30000Y145000D03*
D32*
X326307Y275000D02*
X326907Y274400D01*
X326307Y275000D02*
X315000Y275000D01*
D33*
X315000Y275000D03*
X351058Y310000D03*
D32*
X344300Y303242D01*
X344300Y300383D01*
D31*
X335000Y44836D02*
X337418Y42418D01*
X335000Y44836D02*
X335000Y90000D01*
D33*
X335000Y90000D03*
X125550Y120550D03*
D32*
X126300Y119800D02*
X140300Y119800D01*
X126300Y119800D02*
X125550Y120550D01*
X105800Y111146D02*
X102075Y107421D01*
X87300Y107421D01*
X84880Y105000D01*
X75000Y105000D01*
D33*
X75000Y105000D03*
X256576Y167150D03*
D31*
X250250Y173476D02*
X250250Y176500D01*
X250250Y173476D02*
X256576Y167150D01*
D32*
X239200Y95800D02*
X225300Y95800D01*
X239200Y95800D02*
X240000Y95000D01*
D33*
X240000Y95000D03*
X25384Y257978D03*
D32*
X22406Y255000D02*
X18219Y255000D01*
X22406Y255000D02*
X25384Y257978D01*
D33*
X25000Y284088D03*
D32*
X34894Y277200D02*
X39100Y277200D01*
X30518Y281576D02*
X27512Y281576D01*
X25000Y284088D01*
X30518Y281576D02*
X34894Y277200D01*
X15030Y274494D02*
X15030Y335030D01*
X32966Y352966D01*
X45166Y352966D01*
X63200Y371000D01*
D33*
X211106Y48424D03*
D32*
X210800Y48730D02*
X210800Y73300D01*
X210800Y48730D02*
X211106Y48424D01*
X186800Y51800D02*
X186800Y73300D01*
X186800Y51800D02*
X185000Y50000D01*
X185000Y48424D01*
D33*
X185000Y48424D03*
X27794Y275000D03*
D32*
X27288Y274494D01*
X15030Y274494D01*
X27794Y275000D02*
X35094Y267700D01*
X39100Y267700D01*
D33*
X90000Y305000D03*
D32*
X88500Y306500D01*
X88500Y333996D01*
X74106Y183706D02*
X59300Y168900D01*
X74106Y183706D02*
X106895Y183706D01*
X111050Y179551D01*
X111050Y176500D01*
X111050Y179551D02*
X120000Y188501D01*
X120000Y235000D01*
D33*
X120000Y235000D03*
D32*
X164800Y361244D02*
X164800Y371000D01*
X139400Y371000D01*
X327085Y284079D02*
X344300Y284079D01*
X327085Y284079D02*
X326907Y283900D01*
X340000Y279779D02*
X344300Y284079D01*
X340000Y279779D02*
X340000Y270000D01*
D33*
X340000Y270000D03*
D32*
X179686Y346358D02*
X164800Y361244D01*
D33*
X185000Y303424D03*
D32*
X185000Y316748D01*
X179686Y322062D01*
X179686Y346358D01*
D33*
X250000Y135000D03*
D32*
X242800Y127800D01*
X225300Y127800D01*
X226500Y105000D02*
X225300Y103800D01*
X226500Y105000D02*
X240000Y105000D01*
D33*
X240000Y105000D03*
D32*
X113900Y321100D02*
X113900Y333996D01*
X113900Y370900D01*
X114000Y371000D01*
X318840Y188476D02*
X322612Y192248D01*
X341200Y192248D01*
X318840Y188476D02*
X306791Y188476D01*
X293585Y175270D01*
X290000Y175270D01*
X125000Y315000D02*
X120000Y315000D01*
X113900Y321100D01*
D33*
X127150Y312850D03*
D32*
X125000Y315000D01*
D33*
X239360Y150000D03*
X201376Y55000D03*
D32*
X201376Y56376D02*
X202800Y57800D01*
X201376Y56376D02*
X201376Y55000D01*
X202800Y57800D02*
X202800Y73300D01*
D33*
X250000Y125000D03*
D32*
X245000Y120000D01*
X231951Y120000D01*
X231751Y119800D01*
X225300Y119800D01*
X239360Y150000D02*
X260000Y150000D01*
X265000Y145000D01*
X265000Y140000D01*
X250000Y125000D01*
X286683Y175270D02*
X290000Y175270D01*
X261413Y150000D02*
X260000Y150000D01*
X261413Y150000D02*
X286683Y175270D01*
X110200Y126854D02*
X84900Y126854D01*
X79922Y126854D02*
X110200Y126854D01*
X79922Y126854D02*
X68925Y137851D01*
X110200Y126854D02*
X122554Y126854D01*
X122826Y127126D01*
X139626Y127126D02*
X140300Y127800D01*
X139626Y127126D02*
X122826Y127126D01*
X250554Y104600D02*
X251812Y103342D01*
X251812Y88900D01*
X243200Y88900D01*
X242724Y88424D01*
X225924Y88424D02*
X225300Y87800D01*
X225924Y88424D02*
X242724Y88424D01*
D31*
X278265Y42418D02*
X283382Y42418D01*
X278265Y42418D02*
X258152Y22306D01*
D32*
X50836Y58594D02*
X36108Y58594D01*
X25694Y48180D01*
X50836Y58594D02*
X75497Y83256D01*
X111808Y83256D01*
X124353Y95800D01*
X140300Y95800D01*
X61508Y43866D02*
X50836Y33194D01*
X36108Y33194D02*
X25694Y22780D01*
X36108Y33194D02*
X50836Y33194D01*
X61508Y43866D02*
X61508Y61508D01*
X113492Y79192D02*
X114300Y80000D01*
X125000Y80000D01*
X130000Y80000D01*
X79192Y79192D02*
X61508Y61508D01*
X79192Y79192D02*
X113492Y79192D01*
X132500Y80000D02*
X140300Y87800D01*
X132500Y80000D02*
X130000Y80000D01*
X51314Y150000D02*
X25694Y124380D01*
X130300Y135800D02*
X140300Y135800D01*
X130300Y135800D02*
X116100Y150000D01*
X51314Y150000D01*
X78086Y360486D02*
X88600Y371000D01*
X34300Y168900D02*
X35000Y168200D01*
X35000Y155000D01*
D33*
X35000Y155000D03*
X80000Y220000D03*
X85673Y255673D03*
D32*
X80000Y250000D01*
X80000Y220000D01*
D33*
X78298Y318298D03*
D32*
X78086Y322062D02*
X78086Y360486D01*
X78298Y321851D02*
X78298Y318298D01*
X78298Y321851D02*
X78086Y322062D01*
X34300Y168900D02*
X15158Y168900D01*
X15030Y168772D01*
D33*
X258300Y119757D03*
X200000Y39757D03*
D32*
X194800Y44957D02*
X194800Y73300D01*
X194800Y44957D02*
X200000Y39757D01*
X250788Y112245D02*
X258300Y119757D01*
X250788Y112245D02*
X239792Y112245D01*
X239347Y111800D01*
X225300Y111800D01*
X281864Y176500D02*
X293840Y188476D01*
X281864Y176500D02*
X263250Y176500D01*
D33*
X235000Y160000D03*
D32*
X139300Y320700D02*
X139300Y333996D01*
D33*
X152479Y304055D03*
D32*
X152479Y307521D01*
X139300Y320700D01*
X248164Y160000D02*
X248888Y159276D01*
X248164Y160000D02*
X235000Y160000D01*
X264450Y163888D02*
X264450Y170412D01*
X264450Y163888D02*
X259838Y159276D01*
X248888Y159276D01*
X263250Y171612D02*
X263250Y176500D01*
X263250Y171612D02*
X264450Y170412D01*
X293007Y275000D02*
X301907Y283900D01*
X263850Y268100D02*
X263850Y263850D01*
X260000Y260000D01*
D33*
X260000Y259294D03*
D32*
X260000Y260000D01*
D33*
X271256Y277794D03*
X170000Y304386D03*
D32*
X164700Y309686D02*
X164700Y333996D01*
X164700Y309686D02*
X170000Y304386D01*
D33*
X292028Y275000D03*
D32*
X293007Y275000D01*
X271256Y277794D02*
X263850Y270388D01*
X263850Y268100D01*
D31*
X207300Y290400D02*
X185052Y290400D01*
X207300Y290400D02*
X209100Y292200D01*
X209100Y240100D01*
X208200Y239200D01*
D32*
X196263Y14154D02*
X172127Y14154D01*
X168500Y17780D01*
X95850Y266500D02*
X89350Y266500D01*
X95850Y266500D02*
X102350Y266500D01*
X104550Y205750D02*
X111050Y205750D01*
X104550Y205750D02*
X98050Y205750D01*
X95000Y205750D01*
X91550Y205750D01*
X104550Y205750D02*
X104550Y198250D01*
X101300Y195000D01*
D31*
X168748Y290400D02*
X168148Y291000D01*
X144200Y291000D01*
X95000Y245000D02*
X95000Y205750D01*
X136504Y283304D02*
X144200Y291000D01*
X136504Y283304D02*
X132465Y283304D01*
X128596Y279435D01*
X95000Y250312D02*
X95000Y245000D01*
X89791Y266059D02*
X89350Y266500D01*
X89791Y266059D02*
X89975Y266059D01*
X96059Y259975D01*
X96059Y251371D01*
X95000Y250312D01*
X95000Y245000D02*
X115312Y245000D01*
X128596Y258284D01*
X128596Y279435D01*
X147200Y239200D02*
X196400Y190000D01*
X253500Y195000D02*
X258500Y190000D01*
X196400Y190000D01*
D32*
X256750Y205750D02*
X263250Y205750D01*
X250250Y205750D02*
X245000Y205750D01*
X243750Y205750D01*
X250250Y205750D02*
X256750Y205750D01*
X250850Y268100D02*
X244350Y268100D01*
X250850Y268100D02*
X257350Y268100D01*
D31*
X245000Y267450D02*
X244350Y268100D01*
X245000Y267450D02*
X245000Y205750D01*
D32*
X253500Y202500D02*
X256750Y205750D01*
X253500Y202500D02*
X253500Y195000D01*
D31*
X241848Y22306D02*
X230706Y22306D01*
X229000Y20600D01*
D32*
X140300Y111800D02*
X125000Y111800D01*
X117345Y119456D01*
X78892Y119456D01*
X76035Y122312D02*
X68925Y122312D01*
X76035Y122312D02*
X78892Y119456D01*
M02*
