G04 EAGLE Gerber RS-274X export*
G75*
%MOMM*%
%FSLAX34Y34*%
%LPD*%
%INSolderpaste Top*%
%IPPOS*%
%AMOC8*
5,1,8,0,0,1.08239X$1,22.5*%
G01*
G04 Define Apertures*
%ADD10R,0.920900X0.970200*%
%ADD11R,0.970200X0.920900*%
%ADD12R,3.251200X6.451600*%
%ADD13R,6.451600X3.251200*%
%ADD14R,0.420000X0.640000*%
%ADD15R,1.200000X0.600000*%
%ADD16R,0.600000X1.500000*%
%ADD17R,1.500000X0.600000*%
%ADD18R,2.400000X7.500000*%
%ADD19R,0.900000X0.970200*%
%ADD20R,0.932600X0.970200*%
%ADD21R,0.420000X0.700000*%
%ADD22R,0.420000X0.450000*%
%ADD23R,2.370000X1.700000*%
%ADD24R,0.973900X0.798700*%
%ADD25R,0.798700X0.973900*%
%ADD26R,0.970200X0.900000*%
%ADD27R,0.970200X0.932600*%
D10*
X281354Y89600D03*
X296846Y89600D03*
X250554Y104600D03*
X266046Y104600D03*
D11*
X105800Y95654D03*
X105800Y111146D03*
X87300Y91929D03*
X87300Y107421D03*
X110200Y126854D03*
X110200Y142346D03*
X84900Y126854D03*
X84900Y142346D03*
D12*
X283382Y42418D03*
X337418Y42418D03*
D13*
X42418Y231416D03*
X322582Y236416D03*
D14*
X229000Y35600D03*
X229000Y20600D03*
D15*
X39100Y286700D03*
X39100Y277200D03*
X39100Y267700D03*
X64100Y267700D03*
X64100Y286700D03*
X34300Y187900D03*
X34300Y178400D03*
X34300Y168900D03*
X59300Y168900D03*
X59300Y187900D03*
X318840Y169476D03*
X318840Y178976D03*
X318840Y188476D03*
X293840Y188476D03*
X293840Y169476D03*
X326907Y264900D03*
X326907Y274400D03*
X326907Y283900D03*
X301907Y283900D03*
X301907Y264900D03*
D16*
X154800Y73300D03*
X162800Y73300D03*
X170800Y73300D03*
X178800Y73300D03*
X186800Y73300D03*
X194800Y73300D03*
X202800Y73300D03*
X210800Y73300D03*
D17*
X225300Y87800D03*
X225300Y95800D03*
X225300Y103800D03*
X225300Y111800D03*
X225300Y119800D03*
X225300Y127800D03*
X225300Y135800D03*
X225300Y143800D03*
D16*
X210800Y158300D03*
X202800Y158300D03*
X194800Y158300D03*
X186800Y158300D03*
X178800Y158300D03*
X170800Y158300D03*
X162800Y158300D03*
X154800Y158300D03*
D17*
X140300Y143800D03*
X140300Y135800D03*
X140300Y127800D03*
X140300Y119800D03*
X140300Y111800D03*
X140300Y103800D03*
X140300Y95800D03*
X140300Y87800D03*
D18*
X208200Y239200D03*
X147200Y239200D03*
D19*
X267351Y88900D03*
D20*
X251812Y88900D03*
D21*
X89350Y266500D03*
X95850Y266500D03*
X102350Y266500D03*
X108850Y266500D03*
D22*
X108850Y295750D03*
X102350Y295750D03*
X95850Y295750D03*
X89350Y295750D03*
D23*
X99100Y285000D03*
D21*
X91550Y176500D03*
X98050Y176500D03*
X104550Y176500D03*
X111050Y176500D03*
D22*
X111050Y205750D03*
X104550Y205750D03*
X98050Y205750D03*
X91550Y205750D03*
D23*
X101300Y195000D03*
D21*
X243750Y176500D03*
X250250Y176500D03*
X256750Y176500D03*
X263250Y176500D03*
D22*
X263250Y205750D03*
X256750Y205750D03*
X250250Y205750D03*
X243750Y205750D03*
D23*
X253500Y195000D03*
D21*
X244350Y268100D03*
X250850Y268100D03*
X257350Y268100D03*
X263850Y268100D03*
D22*
X263850Y297350D03*
X257350Y297350D03*
X250850Y297350D03*
X244350Y297350D03*
D23*
X254100Y286600D03*
D24*
X15030Y274494D03*
X15030Y258190D03*
X344300Y284079D03*
X344300Y300383D03*
X341200Y192248D03*
X341200Y208552D03*
X15030Y168772D03*
X15030Y152468D03*
D25*
X258152Y22306D03*
X241848Y22306D03*
X168748Y290400D03*
X185052Y290400D03*
D24*
X196263Y14154D03*
X196263Y30458D03*
D26*
X68925Y137851D03*
D27*
X68925Y122312D03*
M02*
