G04 EAGLE Gerber RS-274X export*
G75*
%MOMM*%
%FSLAX34Y34*%
%LPD*%
%INSoldermask Top*%
%IPPOS*%
%AMOC8*
5,1,8,0,0,1.08239X$1,22.5*%
G01*
G04 Define Apertures*
%ADD10R,1.124100X1.173400*%
%ADD11R,1.173400X1.124100*%
%ADD12R,3.454400X6.654800*%
%ADD13R,6.654800X3.454400*%
%ADD14R,0.623200X0.843200*%
%ADD15R,1.403200X0.803200*%
%ADD16R,0.803200X1.703200*%
%ADD17R,1.703200X0.803200*%
%ADD18P,1.8695X8X22.5*%
%ADD19P,1.8695X8X112.5*%
%ADD20C,1.727200*%
%ADD21R,2.603200X7.703200*%
%ADD22R,1.103200X1.173400*%
%ADD23R,1.135800X1.173400*%
%ADD24R,0.623200X0.903200*%
%ADD25R,0.623200X0.653200*%
%ADD26R,2.573200X1.903200*%
%ADD27R,1.177100X1.001900*%
%ADD28R,1.001900X1.177100*%
%ADD29R,1.173400X1.103200*%
%ADD30R,1.173400X1.135800*%
%ADD31C,0.959600*%
D10*
X281354Y89600D03*
X296846Y89600D03*
X250554Y104600D03*
X266046Y104600D03*
D11*
X105800Y95654D03*
X105800Y111146D03*
X87300Y91929D03*
X87300Y107421D03*
X110200Y126854D03*
X110200Y142346D03*
X84900Y126854D03*
X84900Y142346D03*
D12*
X283382Y42418D03*
X337418Y42418D03*
D13*
X42418Y231416D03*
X322582Y236416D03*
D14*
X229000Y35600D03*
X229000Y20600D03*
D15*
X39100Y286700D03*
X39100Y277200D03*
X39100Y267700D03*
X64100Y267700D03*
X64100Y286700D03*
X34300Y187900D03*
X34300Y178400D03*
X34300Y168900D03*
X59300Y168900D03*
X59300Y187900D03*
X318840Y169476D03*
X318840Y178976D03*
X318840Y188476D03*
X293840Y188476D03*
X293840Y169476D03*
X326907Y264900D03*
X326907Y274400D03*
X326907Y283900D03*
X301907Y283900D03*
X301907Y264900D03*
D16*
X154800Y73300D03*
X162800Y73300D03*
X170800Y73300D03*
X178800Y73300D03*
X186800Y73300D03*
X194800Y73300D03*
X202800Y73300D03*
X210800Y73300D03*
D17*
X225300Y87800D03*
X225300Y95800D03*
X225300Y103800D03*
X225300Y111800D03*
X225300Y119800D03*
X225300Y127800D03*
X225300Y135800D03*
X225300Y143800D03*
D16*
X210800Y158300D03*
X202800Y158300D03*
X194800Y158300D03*
X186800Y158300D03*
X178800Y158300D03*
X170800Y158300D03*
X162800Y158300D03*
X154800Y158300D03*
D17*
X140300Y143800D03*
X140300Y135800D03*
X140300Y127800D03*
X140300Y119800D03*
X140300Y111800D03*
X140300Y103800D03*
X140300Y95800D03*
X140300Y87800D03*
D18*
X168500Y17780D03*
D19*
X51094Y22780D03*
X25694Y22780D03*
X51094Y48180D03*
X25694Y48180D03*
X51094Y73580D03*
X25694Y73580D03*
X51094Y98980D03*
X25694Y98980D03*
X51094Y124380D03*
X25694Y124380D03*
D18*
X144200Y291000D03*
X209100Y292200D03*
D20*
X37700Y326376D02*
X37700Y341616D01*
X63100Y341616D02*
X63100Y326376D01*
X88500Y326376D02*
X88500Y341616D01*
X113900Y341616D02*
X113900Y326376D01*
X139300Y326376D02*
X139300Y341616D01*
X164700Y341616D02*
X164700Y326376D01*
X190100Y326376D02*
X190100Y341616D01*
X215500Y341616D02*
X215500Y326376D01*
X240900Y326376D02*
X240900Y341616D01*
X266300Y341616D02*
X266300Y326376D01*
X291700Y326376D02*
X291700Y341616D01*
X317100Y341616D02*
X317100Y326376D01*
X342500Y326376D02*
X342500Y341616D01*
X37800Y363380D02*
X37800Y378620D01*
X63200Y378620D02*
X63200Y363380D01*
X88600Y363380D02*
X88600Y378620D01*
X114000Y378620D02*
X114000Y363380D01*
X139400Y363380D02*
X139400Y378620D01*
X164800Y378620D02*
X164800Y363380D01*
X190200Y363380D02*
X190200Y378620D01*
X215600Y378620D02*
X215600Y363380D01*
X241000Y363380D02*
X241000Y378620D01*
X266400Y378620D02*
X266400Y363380D01*
X291800Y363380D02*
X291800Y378620D01*
X317200Y378620D02*
X317200Y363380D01*
X342600Y363380D02*
X342600Y378620D01*
D21*
X208200Y239200D03*
X147200Y239200D03*
D22*
X267351Y88900D03*
D23*
X251812Y88900D03*
D24*
X89350Y266500D03*
X95850Y266500D03*
X102350Y266500D03*
X108850Y266500D03*
D25*
X108850Y295750D03*
X102350Y295750D03*
X95850Y295750D03*
X89350Y295750D03*
D26*
X99100Y285000D03*
D24*
X91550Y176500D03*
X98050Y176500D03*
X104550Y176500D03*
X111050Y176500D03*
D25*
X111050Y205750D03*
X104550Y205750D03*
X98050Y205750D03*
X91550Y205750D03*
D26*
X101300Y195000D03*
D24*
X243750Y176500D03*
X250250Y176500D03*
X256750Y176500D03*
X263250Y176500D03*
D25*
X263250Y205750D03*
X256750Y205750D03*
X250250Y205750D03*
X243750Y205750D03*
D26*
X253500Y195000D03*
D24*
X244350Y268100D03*
X250850Y268100D03*
X257350Y268100D03*
X263850Y268100D03*
D25*
X263850Y297350D03*
X257350Y297350D03*
X250850Y297350D03*
X244350Y297350D03*
D26*
X254100Y286600D03*
D27*
X15030Y274494D03*
X15030Y258190D03*
X344300Y284079D03*
X344300Y300383D03*
X341200Y192248D03*
X341200Y208552D03*
X15030Y168772D03*
X15030Y152468D03*
D28*
X258152Y22306D03*
X241848Y22306D03*
X168748Y290400D03*
X185052Y290400D03*
D27*
X196263Y14154D03*
X196263Y30458D03*
D29*
X68925Y137851D03*
D30*
X68925Y122312D03*
D31*
X285000Y235000D03*
X179289Y25711D03*
X112150Y307150D03*
X179474Y55750D03*
X74735Y260865D03*
X65000Y278394D03*
X118210Y271470D03*
X300000Y105000D03*
X100000Y140000D03*
X100000Y160000D03*
X19532Y180636D03*
X276460Y105000D03*
X330000Y205000D03*
X335000Y180000D03*
X30000Y145000D03*
X315000Y275000D03*
X351058Y310000D03*
X335000Y90000D03*
X125550Y120550D03*
X75000Y105000D03*
X256576Y167150D03*
X240000Y95000D03*
X25384Y257978D03*
X25000Y284088D03*
X211106Y48424D03*
X185000Y48424D03*
X27794Y275000D03*
X90000Y305000D03*
X120000Y235000D03*
X340000Y270000D03*
X185000Y303424D03*
X250000Y135000D03*
X240000Y105000D03*
X127150Y312850D03*
X239360Y150000D03*
X201376Y55000D03*
X250000Y125000D03*
X35000Y155000D03*
X80000Y220000D03*
X85673Y255673D03*
X78298Y318298D03*
X258300Y119757D03*
X200000Y39757D03*
X235000Y160000D03*
X152479Y304055D03*
X260000Y259294D03*
X271256Y277794D03*
X170000Y304386D03*
X292028Y275000D03*
M02*
