G04 EAGLE Gerber RS-274X export*
G75*
%MOMM*%
%FSLAX34Y34*%
%LPD*%
%INSoldermask Bottom*%
%IPPOS*%
%AMOC8*
5,1,8,0,0,1.08239X$1,22.5*%
G01*
G04 Define Apertures*
%ADD10R,6.654800X3.454400*%
%ADD11P,1.8695X8X22.5*%
%ADD12P,1.8695X8X112.5*%
%ADD13C,1.727200*%
%ADD14C,0.959600*%
D10*
X42418Y231416D03*
X322582Y236416D03*
D11*
X168500Y17780D03*
D12*
X51094Y22780D03*
X25694Y22780D03*
X51094Y48180D03*
X25694Y48180D03*
X51094Y73580D03*
X25694Y73580D03*
X51094Y98980D03*
X25694Y98980D03*
X51094Y124380D03*
X25694Y124380D03*
D11*
X144200Y291000D03*
X209100Y292200D03*
D13*
X37700Y326376D02*
X37700Y341616D01*
X63100Y341616D02*
X63100Y326376D01*
X88500Y326376D02*
X88500Y341616D01*
X113900Y341616D02*
X113900Y326376D01*
X139300Y326376D02*
X139300Y341616D01*
X164700Y341616D02*
X164700Y326376D01*
X190100Y326376D02*
X190100Y341616D01*
X215500Y341616D02*
X215500Y326376D01*
X240900Y326376D02*
X240900Y341616D01*
X266300Y341616D02*
X266300Y326376D01*
X291700Y326376D02*
X291700Y341616D01*
X317100Y341616D02*
X317100Y326376D01*
X342500Y326376D02*
X342500Y341616D01*
X37800Y363380D02*
X37800Y378620D01*
X63200Y378620D02*
X63200Y363380D01*
X88600Y363380D02*
X88600Y378620D01*
X114000Y378620D02*
X114000Y363380D01*
X139400Y363380D02*
X139400Y378620D01*
X164800Y378620D02*
X164800Y363380D01*
X190200Y363380D02*
X190200Y378620D01*
X215600Y378620D02*
X215600Y363380D01*
X241000Y363380D02*
X241000Y378620D01*
X266400Y378620D02*
X266400Y363380D01*
X291800Y363380D02*
X291800Y378620D01*
X317200Y378620D02*
X317200Y363380D01*
X342600Y363380D02*
X342600Y378620D01*
D14*
X285000Y235000D03*
X179289Y25711D03*
X112150Y307150D03*
X179474Y55750D03*
X74735Y260865D03*
X65000Y278394D03*
X118210Y271470D03*
X300000Y105000D03*
X100000Y140000D03*
X100000Y160000D03*
X19532Y180636D03*
X276460Y105000D03*
X330000Y205000D03*
X335000Y180000D03*
X30000Y145000D03*
X315000Y275000D03*
X351058Y310000D03*
X335000Y90000D03*
X125550Y120550D03*
X75000Y105000D03*
X256576Y167150D03*
X240000Y95000D03*
X25384Y257978D03*
X25000Y284088D03*
X211106Y48424D03*
X185000Y48424D03*
X27794Y275000D03*
X90000Y305000D03*
X120000Y235000D03*
X340000Y270000D03*
X185000Y303424D03*
X250000Y135000D03*
X240000Y105000D03*
X127150Y312850D03*
X239360Y150000D03*
X201376Y55000D03*
X250000Y125000D03*
X35000Y155000D03*
X80000Y220000D03*
X85673Y255673D03*
X78298Y318298D03*
X258300Y119757D03*
X200000Y39757D03*
X235000Y160000D03*
X152479Y304055D03*
X260000Y259294D03*
X271256Y277794D03*
X170000Y304386D03*
X292028Y275000D03*
M02*
