G04 EAGLE Gerber RS-274X export*
G75*
%MOMM*%
%FSLAX34Y34*%
%LPD*%
%INSoldermask Top*%
%IPPOS*%
%AMOC8*
5,1,8,0,0,1.08239X$1,22.5*%
G01*
G04 Define Apertures*
%ADD10R,1.603200X0.803200*%
%ADD11C,1.727200*%
%ADD12R,2.203200X3.703200*%
%ADD13R,2.283200X4.013200*%
%ADD14R,11.633200X9.093200*%
%ADD15R,1.623400X1.234400*%
%ADD16R,6.654800X3.454400*%
%ADD17P,1.8695X8X22.5*%
D10*
X571300Y219100D03*
X571300Y228600D03*
X571300Y238100D03*
X546300Y238100D03*
X546300Y219100D03*
X533200Y562000D03*
X533200Y571500D03*
X533200Y581000D03*
X508200Y581000D03*
X508200Y562000D03*
X164900Y155600D03*
X164900Y165100D03*
X164900Y174600D03*
X139900Y174600D03*
X139900Y155600D03*
X253800Y511200D03*
X253800Y520700D03*
X253800Y530200D03*
X228800Y530200D03*
X228800Y511200D03*
D11*
X127000Y741680D02*
X127000Y756920D01*
X152400Y756920D02*
X152400Y741680D01*
X177800Y741680D02*
X177800Y756920D01*
X203200Y756920D02*
X203200Y741680D01*
X228600Y741680D02*
X228600Y756920D01*
X254000Y756920D02*
X254000Y741680D01*
X279400Y741680D02*
X279400Y756920D01*
X304800Y756920D02*
X304800Y741680D01*
X330200Y741680D02*
X330200Y756920D01*
X355600Y756920D02*
X355600Y741680D01*
X381000Y741680D02*
X381000Y756920D01*
X406400Y756920D02*
X406400Y741680D01*
X431800Y741680D02*
X431800Y756920D01*
X127000Y789780D02*
X127000Y805020D01*
X152400Y805020D02*
X152400Y789780D01*
X177800Y789780D02*
X177800Y805020D01*
X203200Y805020D02*
X203200Y789780D01*
X228600Y789780D02*
X228600Y805020D01*
X254000Y805020D02*
X254000Y789780D01*
X279400Y789780D02*
X279400Y805020D01*
X304800Y805020D02*
X304800Y789780D01*
X330200Y789780D02*
X330200Y805020D01*
X355600Y805020D02*
X355600Y789780D01*
X381000Y789780D02*
X381000Y805020D01*
X406400Y805020D02*
X406400Y789780D01*
X431800Y789780D02*
X431800Y805020D01*
D12*
X247100Y406400D03*
X337100Y406400D03*
D13*
X419100Y244600D03*
D14*
X444500Y358900D03*
D13*
X469900Y244600D03*
X393700Y536700D03*
D14*
X419100Y651000D03*
D13*
X444500Y536700D03*
X101600Y257300D03*
D14*
X127000Y371600D03*
D13*
X152400Y257300D03*
X127000Y536700D03*
D14*
X152400Y651000D03*
D13*
X177800Y536700D03*
D15*
X596900Y237795D03*
X596900Y219405D03*
X190500Y174295D03*
X190500Y155905D03*
X279400Y529895D03*
X279400Y511505D03*
X558800Y580695D03*
X558800Y562305D03*
D16*
X537718Y457200D03*
X537718Y508000D03*
X42418Y457200D03*
X42418Y508000D03*
D17*
X241300Y711200D03*
X292100Y698500D03*
X215900Y254000D03*
X215900Y355600D03*
X314800Y317500D03*
X266700Y317500D03*
X279400Y152400D03*
X254000Y177800D03*
X599600Y546100D03*
X520700Y546100D03*
X114300Y444500D03*
X152400Y482600D03*
X317500Y546100D03*
X317500Y495300D03*
M02*
