G04 EAGLE Gerber RS-274X export*
G75*
%MOMM*%
%FSLAX34Y34*%
%LPD*%
%INSoldermask Bottom*%
%IPPOS*%
%AMOC8*
5,1,8,0,0,1.08239X$1,22.5*%
G01*
G04 Define Apertures*
%ADD10C,1.727200*%
%ADD11R,6.654800X3.454400*%
%ADD12P,1.8695X8X22.5*%
D10*
X127000Y741680D02*
X127000Y756920D01*
X152400Y756920D02*
X152400Y741680D01*
X177800Y741680D02*
X177800Y756920D01*
X203200Y756920D02*
X203200Y741680D01*
X228600Y741680D02*
X228600Y756920D01*
X254000Y756920D02*
X254000Y741680D01*
X279400Y741680D02*
X279400Y756920D01*
X304800Y756920D02*
X304800Y741680D01*
X330200Y741680D02*
X330200Y756920D01*
X355600Y756920D02*
X355600Y741680D01*
X381000Y741680D02*
X381000Y756920D01*
X406400Y756920D02*
X406400Y741680D01*
X431800Y741680D02*
X431800Y756920D01*
X127000Y789780D02*
X127000Y805020D01*
X152400Y805020D02*
X152400Y789780D01*
X177800Y789780D02*
X177800Y805020D01*
X203200Y805020D02*
X203200Y789780D01*
X228600Y789780D02*
X228600Y805020D01*
X254000Y805020D02*
X254000Y789780D01*
X279400Y789780D02*
X279400Y805020D01*
X304800Y805020D02*
X304800Y789780D01*
X330200Y789780D02*
X330200Y805020D01*
X355600Y805020D02*
X355600Y789780D01*
X381000Y789780D02*
X381000Y805020D01*
X406400Y805020D02*
X406400Y789780D01*
X431800Y789780D02*
X431800Y805020D01*
D11*
X537718Y457200D03*
X537718Y508000D03*
X42418Y457200D03*
X42418Y508000D03*
D12*
X241300Y711200D03*
X292100Y698500D03*
X215900Y254000D03*
X215900Y355600D03*
X314800Y317500D03*
X266700Y317500D03*
X279400Y152400D03*
X254000Y177800D03*
X599600Y546100D03*
X520700Y546100D03*
X114300Y444500D03*
X152400Y482600D03*
X317500Y546100D03*
X317500Y495300D03*
M02*
